<?xml version="1.0" encoding="UTF-8" standalone="no"?>
<!-- Created with Inkscape (http://www.inkscape.org/) -->

<svg
   xmlns:dc="http://purl.org/dc/elements/1.1/"
   xmlns:cc="http://creativecommons.org/ns#"
   xmlns:rdf="http://www.w3.org/1999/02/22-rdf-syntax-ns#"
   xmlns:svg="http://www.w3.org/2000/svg"
   xmlns="http://www.w3.org/2000/svg"
   xmlns:sodipodi="http://sodipodi.sourceforge.net/DTD/sodipodi-0.dtd"
   xmlns:inkscape="http://www.inkscape.org/namespaces/inkscape"
   width="256"
   height="256"
   viewBox="0 0 256 256"
   id="svg2"
   version="1.1"
   inkscape:version="0.91 r13725"
   sodipodi:docname="fapepi.svg"
   inkscape:export-filename="/home/weslley/fapepi.svg.png"
   inkscape:export-xdpi="90"
   inkscape:export-ydpi="90">
  <defs
     id="defs4" />
  <sodipodi:namedview
     id="base"
     pagecolor="#ffffff"
     bordercolor="#666666"
     borderopacity="1.0"
     inkscape:pageopacity="0.0"
     inkscape:pageshadow="2"
     inkscape:zoom="1.6766165"
     inkscape:cx="31.841395"
     inkscape:cy="107.16832"
     inkscape:document-units="px"
     inkscape:current-layer="layer1"
     showgrid="false"
     units="px"
     inkscape:window-width="1366"
     inkscape:window-height="744"
     inkscape:window-x="0"
     inkscape:window-y="24"
     inkscape:window-maximized="1" />
  <metadata
     id="metadata7">
    <rdf:RDF>
      <cc:Work
         rdf:about="">
        <dc:format>image/svg+xml</dc:format>
        <dc:type
           rdf:resource="http://purl.org/dc/dcmitype/StillImage" />
        <dc:title />
      </cc:Work>
    </rdf:RDF>
  </metadata>
  <g
     inkscape:label="Camada 1"
     inkscape:groupmode="layer"
     id="layer1"
     transform="translate(0,-796.36216)">
    <g
       transform="scale(1.065361,0.93864897)"
       style="font-style:normal;font-weight:normal;font-size:42.6144371px;line-height:125%;font-family:sans-serif;letter-spacing:0px;word-spacing:0px;fill:#000000;fill-opacity:1;stroke:none;stroke-width:1px;stroke-linecap:butt;stroke-linejoin:miter;stroke-opacity:1"
       id="text4149" />
    <path
       id="path4153"
       style="fill:#969696;fill-opacity:1"
       d="m 128.00001,985.72578 -10.78867,-16.10386 -10.78867,-16.10386 21.57734,0 21.57732,0 -10.78865,16.10386 z m 75.03817,11.68151 10.0642,0 0,28.63281 -10.0642,0 0,-28.63281 z m -33.25178,0 16.69239,0 q 5.45329,0 8.15777,2.28514 2.72666,2.28517 2.72666,6.50387 0,4.336 -2.97051,6.7773 -2.94831,2.4415 -9.02231,2.4415 l -5.49762,0 0,10.625 -10.08638,0 0,-28.63281 z m 10.08638,12.20701 2.46063,0 q 2.90398,0 4.07888,-0.8789 1.17489,-0.8984 1.17489,-2.2852 0,-1.3476 -1.01972,-2.2851 -1.01972,-0.9375 -3.83503,-0.9375 l -2.85965,0 0,6.3867 z m -42.87264,-12.20701 26.91178,0 0,6.11321 -16.84756,0 0,4.5509 15.62833,0 0,5.8398 -15.62833,0 0,5.6445 17.33525,0 0,6.4844 -27.39947,0 0,-28.63281 z m -32.83058,0 16.69239,0 q 5.4533,0 8.15777,2.28514 2.72665,2.28517 2.72665,6.50387 0,4.336 -2.97049,6.7773 -2.94833,2.4415 -9.02232,2.4415 l -5.49763,0 0,10.625 -10.08637,0 0,-28.63281 z m 10.08637,12.20701 2.46064,0 q 2.90399,0 4.07888,-0.8789 1.1749,-0.8984 1.1749,-2.2852 0,-1.3476 -1.01973,-2.2851 -1.01971,-0.9375 -3.83504,-0.9375 l -2.85965,0 0,6.3867 z m -25.337851,11.6992 -11.438613,0 -1.573916,4.7266 -10.263715,0 12.214485,-28.63281 10.95092,0 12.21449,28.63281 -10.507566,0 -1.596085,-4.7266 z m -2.105947,-6.1914 -3.591192,-10.2929 -3.569023,10.2929 7.160215,0 z m -43.914514,-17.71481 24.827995,0 0,6.15241 -14.741622,0 0,4.9999 12.591339,0 0,5.7813 -12.591339,0 0,11.6992 -10.086373,0 0,-28.63281 z m 59.133632,-77.25936 c -6.988367,-0.92222 -14.884327,-2.15165 -17.546568,-2.73206 l -4.840433,-1.05525 -0.325111,-27.47646 -0.325113,-27.47647 7.28336,0 7.283356,0 0,-5.44548 0,-5.44548 7.260649,0 7.26064,0 0,4.23538 0,4.23537 7.26065,0 7.26064,0 0,-4.78268 0,-4.7827 7.56319,-0.36022 7.56316,-0.36021 0.36869,-5.748 0.36867,-5.74802 6.58932,0 6.58928,0 0,6.05054 0,6.05054 6.65559,0 c 6.58837,0 6.65561,0.0363 6.65561,3.63032 l 0,3.63033 7.88684,0 7.88682,0 -0.3235,29.95017 -0.3235,29.95016 -12.10108,2.12156 c -16.62729,2.91508 -49.7427,3.69778 -65.95088,1.55879 z m 18.15162,-42.40379 0,-5.44547 -6.05054,0 -6.05054,0 0,5.44547 0,5.44549 6.05054,0 6.05054,0 z m 45.75116,-6.35306 0.37191,-5.14296 -6.72519,0 -6.72517,0 0,5.50873 0,5.50874 6.35306,-0.36586 6.35307,-0.36586 0.37232,-5.14295 z m -66.322994,-0.30253 0,-4.84043 -6.655597,0 -6.655594,0 0,4.84043 0,4.84043 6.655594,0 6.655597,0 z m 52.034644,-15.12635 0,-5.44548 -6.6556,0 -6.65559,0 0,5.44548 0,5.44549 6.65559,0 6.6556,0 z m -72.606478,-7.79938 0,-4.90675 6.123586,0 6.123592,0 -0.375539,4.53791 c -0.371904,4.49413 -0.430998,4.54145 -6.123586,4.90674 l -5.748018,0.36868 0,-4.90671 z m 90.758098,-6.11686 c 0,-3.49588 0.20168,-3.63032 5.44549,-3.63032 5.24378,0 5.44548,0.13432 5.44548,3.63032 0,3.49588 -0.2017,3.63033 -5.44548,3.63033 -5.24381,0 -5.44549,-0.13433 -5.44549,-3.63033 z m -60.50539,-4.23538 c 0,-4.21295 0.0283,-4.23538 5.44547,-4.23538 5.41669,0 5.44549,0.0242 5.44549,4.23538 0,4.21295 -0.0283,4.23538 -5.44549,4.23538 -5.41667,0 -5.44547,-0.0242 -5.44547,-4.23538 z m -18.151632,-1.81516 c 0,-1.8824 0.806739,-2.42022 3.630323,-2.42022 2.823587,0 3.630326,0.53782 3.630326,2.42022 0,1.8824 -0.806739,2.42022 -3.630326,2.42022 -2.823584,0 -3.630323,-0.53782 -3.630323,-2.42022 z m 64.135732,-4.23538 c 0,-2.6507 0.52437,-3.02526 4.23536,-3.02526 3.711,0 4.23538,0.37473 4.23538,3.02526 0,2.65071 -0.52438,3.02528 -4.23538,3.02528 -3.71099,0 -4.23536,-0.37473 -4.23536,-3.02528 z m -32.67293,-4.23537 0,-4.84043 6.05054,0 6.05055,0 0,4.84043 0,4.84043 -6.05055,0 -6.05054,0 z"
       inkscape:connector-curvature="0" />
  </g>
</svg>
