<?xml version="1.0" encoding="UTF-8" standalone="no"?>
<svg
   xmlns:dc="http://purl.org/dc/elements/1.1/"
   xmlns:cc="http://creativecommons.org/ns#"
   xmlns:rdf="http://www.w3.org/1999/02/22-rdf-syntax-ns#"
   xmlns:svg="http://www.w3.org/2000/svg"
   xmlns="http://www.w3.org/2000/svg"
   xmlns:sodipodi="http://sodipodi.sourceforge.net/DTD/sodipodi-0.dtd"
   xmlns:inkscape="http://www.inkscape.org/namespaces/inkscape"
   width="256"
   height="70"
   viewBox="0 0 256 70"
   version="1.1"
   id="svg2"
   inkscape:version="0.91 r13725"
   sodipodi:docname="inovativa.svg"
   inkscape:export-filename="/home/weslley/projects/thefarma/react/thefarma/src/screens/VersionScreen/images/inovativa.png"
   inkscape:export-xdpi="90"
   inkscape:export-ydpi="90">
  <metadata
     id="metadata46">
    <rdf:RDF>
      <cc:Work
         rdf:about="">
        <dc:format>image/svg+xml</dc:format>
        <dc:type
           rdf:resource="http://purl.org/dc/dcmitype/StillImage" />
        <dc:title>inovativa-logo-background</dc:title>
      </cc:Work>
    </rdf:RDF>
  </metadata>
  <sodipodi:namedview
     pagecolor="#ffffff"
     bordercolor="#666666"
     borderopacity="1"
     objecttolerance="10"
     gridtolerance="10"
     guidetolerance="10"
     inkscape:pageopacity="0"
     inkscape:pageshadow="2"
     inkscape:window-width="1366"
     inkscape:window-height="744"
     id="namedview44"
     showgrid="false"
     inkscape:zoom="2.296875"
     inkscape:cx="45.714286"
     inkscape:cy="17.5"
     inkscape:window-x="0"
     inkscape:window-y="24"
     inkscape:window-maximized="1"
     inkscape:current-layer="svg2" />
  <!-- Generator: Sketch 50.2 (55047) - http://www.bohemiancoding.com/sketch -->
  <title
     id="title4">inovativa-logo-background</title>
  <desc
     id="desc6">Created with Sketch.</desc>
  <defs
     id="defs8" />
  <g
     id="Welcome"
     transform="matrix(2.007435,0,0,2.007435,5.350132e-6,0.73977421)"
     style="fill:none;fill-rule:evenodd;stroke:none;stroke-width:1">
    <g
       id="0.0.1-Version"
       transform="translate(-24,-214)">
      <g
         id="Group"
         transform="translate(24,165)">
        <g
           id="Group-2"
           transform="translate(0,35)">
          <g
             id="1"
             transform="translate(0,14)">
            <g
               id="inovativa-logo-background">
              <rect
                 id="Backgorund"
                 x="0"
                 y="0"
                 width="127.52592"
                 height="34.133335" />
              <path
                 d="m 127.40465,27.421168 -1.76879,0 0,-6.929728 -0.71717,0 0,7.651028 2.48596,0 0,-0.7213 z m -7.07647,-6.929728 -0.74716,0 0,7.651028 0.74455,0 0.003,-7.651028 z m -7.91099,1.629482 c 0,-0.487205 0.42834,-0.908182 0.98708,-0.908182 0.5307,0 0.98708,0.402617 0.98708,0.908182 l 0,0.767857 0.71716,0 0,-0.767857 c 0,-0.899002 -0.75432,-1.629482 -1.70424,-1.629482 -0.94992,0 -1.71207,0.73048 -1.71207,1.629482 l 0,1.123917 c 0,0.852446 0.79149,1.489158 1.69512,1.489158 0.5307,0 0.9962,0.290487 0.9962,0.7213 l 0,1.095721 c 0,0.487205 -0.42834,0.908182 -0.97795,0.908182 -0.54961,0 -0.99621,-0.421632 -0.99621,-0.908838 l 0,-0.739661 -0.71716,0 0,0.739661 c 0,0.899003 0.76345,1.629483 1.71337,1.629483 0.93101,0 1.70425,-0.73048 1.70425,-1.629483 l 0,-1.095721 c 0,-0.824249 -0.82865,-1.358011 -1.68534,-1.423584 -0.53983,-0.0282 -1.00534,-0.318684 -1.00534,-0.786873 l -0.002,-1.123262 z m -4.89434,6.022202 -1.5921,-7.651684 -0.82866,0 -1.53604,7.651684 0.8104,0 0.29795,-1.264243 1.7225,0 0.31686,1.264243 0.80909,0 z m -2.765,-1.929806 c 0.28882,-1.56391 0.5118,-2.809792 0.76346,-4.111412 l 0.79149,4.111412 -1.55495,0 z m -7.148186,-5.001234 c 0.23904,-9.06e-4 0.468408,0.09487 0.636514,0.2658 0.168106,0.170926 0.260837,0.402644 0.257335,0.643038 l 0,1.891774 c -0.01028,0.468421 -0.390838,0.842724 -0.856687,0.84261 l -0.931012,0 0,-3.643228 0.89385,6e-6 z m -0.89385,4.29895 0.940139,0 c 0.493541,0 0.921885,0.411797 0.921885,0.880642 l 0,1.751448 0.726945,0 0,-1.752104 c 0,-0.459009 -0.242532,-0.918018 -0.670876,-1.236046 0.363147,-0.299668 0.605027,-0.721301 0.605027,-1.142278 l 0,-1.891774 c -0.0054,-0.901527 -0.733546,-1.629499 -1.629922,-1.629482 l -1.620144,0 0,7.651028 0.726294,0 6.52e-4,-2.631434 z m -7.221862,-4.29895 c 0.502669,0 0.931012,0.375076 0.931012,0.815069 l 0,1.142278 c -0.01138,0.512331 -0.421617,0.924932 -0.931012,0.936379 l -1.061405,0 0,-2.893726 1.061405,0 z m 0.130394,3.549453 c 0.588444,0.0067 1.06384,0.484868 1.070533,1.076705 l 0,0.627531 c 0,0.524582 -0.484413,0.955395 -1.071185,0.955395 l -1.191799,0 0,-2.659631 1.192451,0 z m -1.908965,3.380931 1.908965,0 c 0.996209,0 1.796827,-0.815069 1.796827,-1.854397 l 0,-0.449829 c 0,-0.590155 -0.325985,-1.152113 -0.866467,-1.498338 0.363147,-0.308847 0.5959,-0.702284 0.5959,-1.170473 l 0,-0.964575 c 0,-0.945559 -0.745201,-1.713416 -1.657306,-1.713416 l -1.778571,0 6.52e-4,7.651028 z m 37.920479,-11.408347 -2.32623,-11.1775319 -1.21005,0 -2.24473,11.1775319 1.34632,0 1.50996,-7.4562781 1.57841,7.4562781 1.34632,0 z m -14.10209,-11.1775319 2.04001,11.1775319 1.71403,0 1.99959,-11.1775319 -1.33263,0 -1.52365,8.2910189 -1.56473,-8.2910189 -1.33262,0 z"
                 id="Shape"
                 inkscape:connector-curvature="0"
                 style="fill:#000000;fill-opacity:0.4" />
              <polygon
                 id="polygon18"
                 points="107.55969,5.5565891 107.55969,16.669767 106.36899,16.669767 106.36899,5.5565891 "
                 style="fill:#000000;fill-opacity:0.4;fill-rule:nonzero" />
              <path
                 d="m 101.04551,6.8528677 1.75139,0 0,-1.2962786 -4.843035,0 0,1.2962786 1.778927,0 0,9.7353563 1.312718,0 0,-9.7353563 z M 78.982364,5.5565891 81.03472,16.588224 l 1.723191,0 2.011702,-11.0316349 -1.340916,0 -1.532382,8.1827989 -1.573691,-8.1827989 -1.34026,0 z m -6.343942,9.8434339 c -0.752749,0 -1.436648,-0.405128 -1.436648,-0.958457 l 0,-6.6574227 c 0,-0.5539763 0.683899,-0.9584566 1.436648,-0.9584566 0.766519,0 1.436649,0.4051275 1.436649,0.9584566 l 0,6.6574227 c 0,0.553976 -0.670786,0.959104 -1.436649,0.959104 l 0,-6.47e-4 z m 2.748714,-7.6158797 c 0,-1.2690975 -1.285181,-2.2262598 -2.749369,-2.2262598 -1.436649,0 -2.750025,0.9591038 -2.750025,2.2282013 l 0,6.6554812 c 0,1.269098 1.311409,2.228201 2.750025,2.228201 1.464188,0 2.750025,-0.958456 2.750025,-2.228201 l -6.56e-4,-6.6574227 z m -13.348178,1.539614 2.612982,7.2644667 1.2183,0 0,-11.0316349 -1.313377,0 0,7.0483129 -2.408403,-7.0483129 -1.422879,0 0,11.0316349 1.313377,0 0,-7.2644667 z"
                 id="path20"
                 inkscape:connector-curvature="0"
                 style="fill:#000000;fill-opacity:0.4" />
              <polygon
                 id="polygon22"
                 points="56.35969,5.5565891 56.35969,16.669767 55.168992,16.669767 55.168992,5.5565891 "
                 style="fill:#000000;fill-opacity:0.4;fill-rule:nonzero" />
              <polygon
                 id="polygon24"
                 points="87.714729,16.669767 90.423674,3.1751938 92.034363,3.1751938 94.858915,16.669767 93.532694,16.669767 91.23941,5.6269223 89.024063,16.669767 "
                 style="fill:#000000;fill-opacity:0.4" />
              <path
                 d="m 36.410303,0 -1.88007,1.4018888 c 6.043554,4.2278254 9.995513,11.2098962 9.995513,19.1037482 0.0019,2.471802 -0.392139,4.9282 -1.167326,7.277309 l 0.622749,0 1.938536,-0.0072 C 48.718968,17.460683 44.962867,6.4895789 36.410303,0 Z"
                 id="path26"
                 inkscape:connector-curvature="0"
                 style="fill:#000000;fill-opacity:0.4;fill-rule:nonzero" />
              <path
                 d="M 31.964537,3.1751938 C 30.134603,4.5520382 31.755849,3.3343364 30.334161,4.4033312 L 29.767442,4.83706 c 7.79774,4.4692802 11.198232,13.938722 8.025366,22.348449 -0.07695,0.320894 -0.134343,0.529605 -0.15456,0.597437 l 2.797075,0 c 0.822054,-2.265291 1.241408,-4.656977 1.239086,-7.066845 -0.0013,-7.394262 -3.876384,-13.8812794 -9.709872,-17.5409072 z"
                 id="path28"
                 inkscape:connector-curvature="0"
                 style="fill:#000000;fill-opacity:0.4" />
              <path
                 d="m 28.059129,6.3503876 c 3.777092,1.8721507 6.660245,5.1848034 8.012624,9.2062544 1.352378,4.021452 1.062701,8.420797 -0.805046,12.226304 l -2.747845,0 c 0.08649,-0.168463 0.167794,-0.33889 0.243907,-0.511281 1.782429,-3.446498 2.042811,-7.491562 0.717204,-11.141819 C 32.154366,12.479589 29.36557,9.5622913 25.79845,8.0943729 l 2.260679,-1.7439853 z"
                 id="path30"
                 inkscape:connector-curvature="0"
                 style="fill:#000000;fill-opacity:0.4" />
              <path
                 d="m 30.56124,11.510078 c 2.165104,2.277277 3.431061,5.231178 3.572093,8.334883 -0.183728,-3.094226 -1.443883,-6.034588 -3.572093,-8.334883"
                 id="path32"
                 inkscape:connector-curvature="0"
                 style="fill:#000000;fill-opacity:0.4" />
              <path
                 d="m 8.731783,27.782946 -8.731783,0 6.9510424,-5.15969 c 0.2286023,1.818767 0.8343355,3.573878 1.7807406,5.15969"
                 id="path34"
                 inkscape:connector-curvature="0"
                 style="fill:#000000;fill-opacity:0.4" />
              <path
                 d="m 0,27.782946 7.5410853,-2.37421 C 7.2229005,24.505401 7.0028247,23.571752 6.8845033,22.623256 L 0,27.782946 Z"
                 id="path36"
                 inkscape:connector-curvature="0"
                 style="fill:#000000;fill-opacity:0.4" />
              <path
                 d="m 30.95814,28.606658 c -2.458312,3.466444 -6.446918,5.526675 -10.69964,5.526675 -4.252723,0 -8.241329,-2.060231 -10.6996399,-5.526675 l 21.3992799,0 z M 20.2585,7.937988 c 1.284858,-9.421e-4 2.562867,0.1869132 3.79299,0.5575339 L 7.1500819,21.418921 c -0.00393,-0.127386 -0.0059,-0.254991 -0.0059,-0.382813 0,-7.233544 5.8702921,-13.0974656 13.1116931,-13.0974656 l 0.0026,-6.544e-4 z"
                 id="path38"
                 inkscape:connector-curvature="0"
                 style="fill:#000000;fill-opacity:0.4" />
              <path
                 d="m 31.774344,27.782946 -22.3262848,0 C 8.3773606,26.071118 7.7243773,24.135054 7.5410853,22.128859 L 25.187152,8.731783 c 3.686443,1.36109 6.563385,4.289566 7.83931,7.979737 1.275925,3.69017 0.816412,7.753263 -1.252118,11.071426"
                 id="path40"
                 inkscape:connector-curvature="0"
                 style="fill:#000000;fill-opacity:0.4" />
              <path
                 d="M 8.2104127,25.40155 33.339535,17.334663 c -1.185474,-3.969766 -4.166932,-7.154534 -8.05369,-8.60288 L 7.5410853,22.296217 c 0.096127,1.05833 0.3206615,2.10108 0.6686679,3.105333"
                 id="path42"
                 inkscape:connector-curvature="0"
                 style="fill:#000000;fill-opacity:0.4" />
            </g>
          </g>
        </g>
      </g>
    </g>
  </g>
</svg>
