<?xml version="1.0" encoding="UTF-8" standalone="no"?>
<!-- Created with Inkscape (http://www.inkscape.org/) -->

<svg
   xmlns:dc="http://purl.org/dc/elements/1.1/"
   xmlns:cc="http://creativecommons.org/ns#"
   xmlns:rdf="http://www.w3.org/1999/02/22-rdf-syntax-ns#"
   xmlns:svg="http://www.w3.org/2000/svg"
   xmlns="http://www.w3.org/2000/svg"
   xmlns:sodipodi="http://sodipodi.sourceforge.net/DTD/sodipodi-0.dtd"
   xmlns:inkscape="http://www.inkscape.org/namespaces/inkscape"
   width="256"
   height="256"
   viewBox="0 0 256 256"
   id="svg2"
   version="1.1"
   inkscape:version="0.91 r13725"
   sodipodi:docname="sebrae.svg"
   inkscape:export-filename="/home/weslley/projects/thefarma/react/thefarma/src/screens/VersionScreen/images/sebrae.png"
   inkscape:export-xdpi="90"
   inkscape:export-ydpi="90">
  <defs
     id="defs4" />
  <sodipodi:namedview
     id="base"
     pagecolor="#ffffff"
     bordercolor="#666666"
     borderopacity="1.0"
     inkscape:pageopacity="0.0"
     inkscape:pageshadow="2"
     inkscape:zoom="0.83830825"
     inkscape:cx="-294.62669"
     inkscape:cy="84.869397"
     inkscape:document-units="px"
     inkscape:current-layer="g4209"
     showgrid="false"
     units="px"
     inkscape:window-width="1366"
     inkscape:window-height="744"
     inkscape:window-x="0"
     inkscape:window-y="24"
     inkscape:window-maximized="1" />
  <metadata
     id="metadata7">
    <rdf:RDF>
      <cc:Work
         rdf:about="">
        <dc:format>image/svg+xml</dc:format>
        <dc:type
           rdf:resource="http://purl.org/dc/dcmitype/StillImage" />
        <dc:title />
      </cc:Work>
    </rdf:RDF>
  </metadata>
  <g
     inkscape:label="Camada 1"
     inkscape:groupmode="layer"
     id="layer1"
     transform="translate(0,-796.36216)">
    <text
       xml:space="preserve"
       style="font-style:normal;font-weight:normal;font-size:26.05360985px;line-height:125%;font-family:sans-serif;letter-spacing:0px;word-spacing:0px;fill:#ffffff;fill-opacity:1;stroke:none;stroke-width:1px;stroke-linecap:butt;stroke-linejoin:miter;stroke-opacity:1"
       x="455.2027"
       y="802.38489"
       id="text4173"
       sodipodi:linespacing="125%"
       transform="scale(0.97881942,1.0216389)"><tspan
         sodipodi:role="line"
         id="tspan4175"
         x="455.2027"
         y="802.38489"
         style="font-style:normal;font-variant:normal;font-weight:bold;font-stretch:normal;font-family:'DejaVu Sans';-inkscape-font-specification:'DejaVu Sans Bold';fill:#ffffff">SEBRAE</tspan></text>
    <text
       transform="scale(0.97881942,1.0216389)"
       sodipodi:linespacing="125%"
       id="text4187"
       y="802.38489"
       x="455.2027"
       style="font-style:normal;font-weight:normal;font-size:26.05360985px;line-height:125%;font-family:sans-serif;letter-spacing:0px;word-spacing:0px;fill:#ffffff;fill-opacity:1;stroke:none;stroke-width:1px;stroke-linecap:butt;stroke-linejoin:miter;stroke-opacity:1"
       xml:space="preserve"><tspan
         style="font-style:normal;font-variant:normal;font-weight:bold;font-stretch:normal;font-family:'DejaVu Sans';-inkscape-font-specification:'DejaVu Sans Bold';fill:#ffffff"
         y="802.38489"
         x="455.2027"
         id="tspan4189"
         sodipodi:role="line">SEBRAE</tspan></text>
    <text
       xml:space="preserve"
       style="font-style:normal;font-weight:normal;font-size:26.05360985px;line-height:125%;font-family:sans-serif;letter-spacing:0px;word-spacing:0px;fill:#ffffff;fill-opacity:1;stroke:none;stroke-width:1px;stroke-linecap:butt;stroke-linejoin:miter;stroke-opacity:1"
       x="455.2027"
       y="873.0824"
       id="text4191"
       sodipodi:linespacing="125%"
       transform="scale(0.97881942,1.0216389)"><tspan
         sodipodi:role="line"
         id="tspan4193"
         x="455.2027"
         y="873.0824"
         style="font-style:normal;font-variant:normal;font-weight:bold;font-stretch:normal;font-family:'DejaVu Sans';-inkscape-font-specification:'DejaVu Sans Bold';fill:#ffffff">A BOSS</tspan></text>
    <g
       id="g4209"
       transform="translate(-383.79066,87.696969)">
      <path
         style="fill:#969696;fill-opacity:1"
         d="m 104.63086,29.484375 c -5.31369,-0.0012 -11.607857,0.529094 -14.613282,1.433594 -2.63939,0.79434 -7.392127,3.04434 -10.560547,5 -4.70474,2.90393 -6.740685,3.559212 -11.109375,3.570312 -2.9421,0.0075 -6.381048,0.289033 -7.642578,0.626953 -2.19109,0.58692 -2.126032,0.728616 1.460938,3.166016 2.0652,1.40335 3.206719,2.733831 2.537109,2.957031 -0.66959,0.2232 -0.96429,0.81408 -0.65625,1.3125 0.30804,0.49843 -0.890619,2.709673 -2.662109,4.914063 -1.7715,2.20438 -2.93788,4.290635 -2.59375,4.634765 0.53653,0.53653 2.768685,0.78007 11.734375,1.28711 1.16807,0.06605 1.436421,1.02707 1.144531,4.08789 -0.20981,2.2 0.0024,3.993328 0.472656,3.986329 0.47027,-0.0069 2.947003,-2.396787 5.501953,-5.310547 3.35533,-3.82654 5.85465,-5.65899 9,-6.59961 10.91965,-3.26554 21.446069,-11.438576 25.847659,-20.066406 l 1.9375,-3.794922 -2.21485,-0.59375 c -1.55925,-0.418024 -4.39577,-0.610582 -7.58398,-0.611328 z m -8.375001,5.148437 c 2.781919,-0.05134 4.457221,2.12795 4.064451,5.421876 -0.568686,4.769269 -7.307138,5.319626 -8.468748,0.691406 -0.829629,-3.30554 0.676835,-5.690366 3.833985,-6.072266 0.195008,-0.02359 0.384851,-0.03759 0.570312,-0.04102 z m 65.603521,17.964844 c -7.04776,-0.03315 -14.17929,1.73741 -21.23438,5.3125 -4.816,2.44045 -4.8795,2.443844 -13.23242,0.933594 -15.06905,-2.72455 -33.598596,-0.02206 -48.271486,7.041016 -23.67726,11.39751 -40.409772,34.138724 -44.582032,60.589844 -6.93539,43.96875 24.49298,85.77307 69.152348,91.98437 8.08724,1.1248 21.37635,0.36092 30.30664,-1.74218 3.92003,-0.9232 12.37505,-4.38148 19.21484,-7.85938 l 12.21289,-6.20898 4.78711,1.47461 c 10.74464,3.3127 19.57369,4.37132 34.54883,4.14062 14.11678,-0.2175 15.03518,-0.35242 15.93359,-2.32422 0.52438,-1.1509 2.53698,-2.94585 4.47266,-3.98828 5.23474,-2.81909 11.95034,-10.84304 14.27734,-17.0625 3.88107,-10.37309 2.15159,-26.38454 -4.20117,-38.91406 -3.65147,-7.20179 -9.98194,-15.87456 -16.78906,-23 l -6.6875,-7 -0.63086,-7.14453 c -0.51565,-5.8287 -0.35625,-7.25003 0.86523,-7.71875 0.88661,-0.34023 1.4961,-1.846721 1.4961,-3.693361 0,-2.50189 -0.55668,-3.327951 -2.81836,-4.181641 -2.13553,-0.80607 -3.25265,-2.301032 -4.60742,-6.164062 -4.19708,-11.96761 -13.66542,-23.646044 -23.48243,-28.964844 -6.71817,-3.639865 -13.68271,-5.476619 -20.73046,-5.509766 z m -0.36133,3.478516 c 12.74103,-0.05106 18.75027,2.310235 27.94531,10.984375 9.41622,8.88279 17.36239,24.103037 14.94336,28.623047 -0.87468,1.63435 -0.64989,2.620952 1.15234,5.058596 1.23141,1.66557 2.45874,4.98544 2.72852,7.3789 0.26982,2.39345 0.2882,4.35352 0.041,4.35352 -0.2472,0 -2.8924,-1.8245 -5.8789,-4.05273 -2.98651,-2.22824 -8.2717,-5.71286 -11.74414,-7.74415 -4.67753,-2.736242 -7.71928,-5.561973 -11.74024,-10.904292 -8.22577,-10.928921 -23.41517,-22.485891 -34.69726,-26.400391 -2.0625,-0.71562 -3.75,-1.629307 -3.75,-2.029297 0,-0.39999 2.5875,-1.739916 5.75,-2.978516 4.49138,-1.75906 7.82946,-2.259362 15.25,-2.289062 z M 56.183594,57.474609 c -2.20456,0 -15.090798,11.467362 -20.423828,18.175782 -12.83309,16.14274 -19.586212,33.191069 -20.832032,52.591799 -0.40562,6.31655 -0.251758,9.23242 0.488282,9.23242 0.59483,0 1.167021,-1.6875 1.269531,-3.75 1.33018,-26.76228 14.332316,-53.03645 34.197265,-69.09961 6.50133,-5.2571 7.905202,-7.150391 5.300782,-7.150391 z m 14.365234,33.853516 c 1.021067,0 2.071214,0.08147 3.150391,0.246094 1.079177,0.155961 2.19572,0.394257 3.349609,0.714843 l 0,4.107422 c -1.021067,-0.476548 -2.017022,-0.837471 -2.988281,-1.080078 -0.971259,-0.242606 -1.888612,-0.363281 -2.751953,-0.363281 -1.145588,0 -1.991173,0.164889 -2.539063,0.494141 -0.54789,0.329251 -0.822265,0.840042 -0.822265,1.533203 0,0.51987 0.181615,0.928063 0.546875,1.222656 0.373561,0.285929 1.046319,0.532286 2.017578,0.740234 l 2.042969,0.429688 c 2.067038,0.433225 3.53656,1.090833 4.408203,1.974613 0.871642,0.88378 1.30664,2.1406 1.30664,3.76953 0,2.14013 -0.609778,3.73479 -1.830078,4.7832 -1.211998,1.03974 -3.067697,1.55859 -5.566406,1.55859 -1.178793,0 -2.361734,-0.11566 -3.548828,-0.3496 -1.187095,-0.23395 -2.373453,-0.5818 -3.560547,-1.04102 l 0,-4.22461 c 1.187094,0.6585 2.331466,1.15818 3.435547,1.49609 1.112382,0.32926 2.183522,0.49414 3.21289,0.49414 1.045972,0 1.848106,-0.18296 2.404297,-0.54687 0.556191,-0.36391 0.833985,-0.88276 0.833985,-1.55859 0,-0.60652 -0.192357,-1.07505 -0.574219,-1.4043 -0.373561,-0.32925 -1.124921,-0.62483 -2.253906,-0.88477 l -1.853516,-0.42773 c -1.859505,-0.4159 -3.222596,-1.07851 -4.085938,-1.98828 -0.85504,-0.90978 -1.28125,-2.135454 -1.28125,-3.677737 0,-1.932186 0.597573,-3.419243 1.792969,-4.458984 1.195396,-1.039742 2.91293,-1.558594 5.154297,-1.558594 z m 11.941406,0.349609 12.9375,0 0,3.783204 -8.142578,0 0,3.613281 7.658203,0 0,3.781251 -7.658203,0 0,4.44531 8.417969,0 0,3.78125 -13.212891,0 z m 17.433594,0 7.197262,0 c 2.58173,0 4.44963,0.408192 5.60352,1.222657 1.16219,0.814464 1.74219,2.118555 1.74219,3.912109 0,0.944432 -0.2114,1.748848 -0.63477,2.416016 -0.42337,0.658503 -1.03656,1.148164 -1.8418,1.468754 1.02937,0.31192 1.82614,0.88805 2.39063,1.72851 0.56449,0.84046 0.8457,1.87206 0.8457,3.09375 0,1.87154 -0.60441,3.26711 -1.8164,4.18555 -1.212,0.91844 -3.0555,1.37695 -5.5293,1.37695 l -7.957032,0 z m 19.425782,0 7.32031,0 c 2.4489,0 4.24357,0.429323 5.38086,1.28711 1.14559,0.857786 1.7168,2.214154 1.7168,4.068359 0,1.282348 -0.29879,2.335075 -0.89649,3.158207 -0.58939,0.82312 -1.48038,1.42845 -2.67578,1.81836 0.65581,0.15596 1.24118,0.51187 1.75586,1.0664 0.52299,0.54587 1.04879,1.37837 1.58008,2.4961 l 2.60352,5.50976 -5.10547,0 -2.26758,-4.82226 c -0.45658,-0.97043 -0.92135,-1.63304 -1.39453,-1.98829 -0.46488,-0.35524 -1.08686,-0.5332 -1.86719,-0.5332 l -1.35742,0 0,7.34375 -4.79297,0 z m 24.29297,0 5.71484,0 6.88672,19.404296 -4.81836,0 -1.17187,-3.53515 -7.4961,0 -1.18164,3.53515 -4.82031,0 z m 15.05469,0 12.9375,0 0,3.783204 -8.14258,0 0,3.613281 7.65625,0 0,3.781251 -7.65625,0 0,4.44531 8.41601,0 0,3.78125 -13.21093,0 z m -53.98047,3.40625 0,4.105469 2.65234,0 c 0.75542,0 1.32859,-0.172951 1.71875,-0.519531 0.39016,-0.346581 0.58594,-0.857371 0.58594,-1.533203 0,-0.667168 -0.19578,-1.172951 -0.58594,-1.519531 -0.39016,-0.355245 -0.96333,-0.533204 -1.71875,-0.533204 z m 19.42578,0.220704 0,4.976562 2.01758,0 c 1.00446,0 1.72262,-0.19408 2.15429,-0.583984 0.43998,-0.389903 0.66016,-1.031384 0.66016,-1.923828 0,-0.883781 -0.22018,-1.515246 -0.66016,-1.896485 -0.43167,-0.381238 -1.14983,-0.572265 -2.15429,-0.572265 z m 22.36328,0.921874 -2.55274,7.720708 5.09376,0 z m 40.61133,5.595708 c 0.11639,-0.006 0.29996,0.0684 0.54883,0.21484 3.50668,2.06362 13.73333,9.11927 17.08203,11.78516 3.65466,2.90948 3.74911,3.15308 3.73633,9.56835 -0.028,14.0093 -5.78835,33.40138 -14.0586,47.32227 -2.3431,3.94403 -7.77198,10.79005 -12.06445,15.21484 -7.85322,8.09528 -10.65771,9.6452 -4.61328,2.54883 11.7467,-13.79105 18.73885,-35.91784 17.39843,-55.05468 -0.59852,-8.54483 -4.30887,-23.45729 -7.2539,-29.15235 -0.8739,-1.68994 -1.12456,-2.42996 -0.77539,-2.44726 z m -82.40039,0.77343 0,5.08203 2.81445,0 c 0.96296,0 1.68649,-0.21215 2.16797,-0.63671 0.48978,-0.42457 0.73437,-1.06605 0.73437,-1.92383 0,-0.84046 -0.24117,-1.46887 -0.72265,-1.88477 -0.48148,-0.42456 -1.20843,-0.63672 -2.17969,-0.63672 z m -52.218753,13.87891 5,0 5,0 0,16 0,16 7.5,0 7.5,0 0,4.5 0,4.5 -12.5,0 -12.5,0 0,-20.5 z m 30,0 9.5,0 9.500003,0 0,4.5 c 0,4.14837 -0.19734,4.5 -2.531253,4.5 l -2.53125,0 0.28125,11.75 0.28125,11.75 2.75,0.31641 c 2.480303,0.28539 2.750003,0.7022 2.750003,4.25 l 0,3.93359 -10.500003,0 -10.5,0 0,-3.93359 c 0,-3.5478 0.2697,-3.96461 2.75,-4.25 l 2.75,-0.31641 0.28125,-11.75 0.283203,-11.75 -2.533203,0 c -2.33391,0 -2.53125,-0.35163 -2.53125,-4.5 z m 27.000003,0 5,0 5,0 0,8 0,8 2.94531,0 c 1.64172,0 4.14154,-1.0325 5.65234,-2.33203 2.19701,-1.88979 2.79845,-3.40282 3.17969,-8 l 0.4707,-5.66797 4.87696,0 4.875,0 0,5.03125 c 0,6.04659 -2.15522,11.74123 -5.47657,14.4707 l -2.4375,2.00391 5.45704,8.74805 c 3.00162,4.81065 5.45703,9.19627 5.45703,9.74609 0,0.54983 -2.43525,1 -5.41211,1 l -5.41211,0 -4.65039,-8.0625 c -3.83024,-6.6405 -5.03578,-8.0065 -6.83789,-7.75 -2.0053,0.28543 -2.21081,0.95872 -2.47852,8.0625 l -0.29297,7.75 -4.95703,0 -4.95898,0 0,-20.5 z m 42,0 13,0 13,0 0,4.5 0,4.5 -8,0 -8,0 0,3.5 0,3.5 7,0 7,0 0,4 0,4 -7,0 -7,0 0,4 0,4 8,0 8,0 0,4.5 0,4.5 -13,0 -13,0 0,-20.5 z m 60,3.58203 4.59179,4.45898 c 5.73826,5.5716 12.25024,14.61666 16.20508,22.50977 8.88671,17.73619 8.56688,35.07432 -0.8457,45.76758 -4.71181,5.3529 -10.30064,8.93178 -11.72461,7.50781 -1.70292,-1.70292 -6.64844,-0.50579 -7.6875,1.86133 -0.52834,1.20365 -1.87834,2.43493 -3,2.73633 -6.49295,1.7444 -29.52533,-0.26537 -37.69922,-3.28906 -2.03606,-0.7532 -1.88362,-1.00851 2.29688,-3.88477 13.78866,-9.48685 26.04059,-26.71292 32.53906,-45.75 2.68247,-7.8582 5.32422,-21.67422 5.32422,-27.83984 z M 15.458984,138.67773 c -0.633822,0.0236 -0.960937,0.9691 -0.960937,2.79688 0,2.08889 0.42544,3.02485 1.25,2.75 1.62479,-0.5416 1.62479,-4.9584 0,-5.5 -0.10307,-0.0344 -0.198517,-0.0502 -0.289063,-0.0469 z m 0.292969,6.79688 c -1.10802,0 -1.325959,0.70022 -0.855469,2.75 0.34716,1.5125 0.821788,3.875 1.054688,5.25 0.55414,3.27142 1.609576,8.17558 2.097656,9.75 0.21314,0.6875 0.850709,1.25 1.417969,1.25 1.14748,0 1.42188,-4.27734 0.34375,-5.35547 -0.71158,-0.71158 -0.773184,-1.00144 -1.896485,-8.89453 -0.460139,-3.23325 -1.150259,-4.75 -2.162109,-4.75 z m 104.867187,18.08008 c 2.98849,0 5.32996,0.89284 7.02344,2.67773 1.69348,1.78489 2.53906,4.24932 2.53906,7.39453 0,3.13656 -0.84558,5.59793 -2.53906,7.38282 -1.69348,1.78489 -4.03495,2.67773 -7.02344,2.67773 -2.98019,0 -5.32166,-0.89284 -7.02344,-2.67773 -1.69347,-1.78489 -2.53906,-4.24626 -2.53906,-7.38282 0,-3.14521 0.84559,-5.60964 2.53906,-7.39453 1.70178,-1.78489 4.04325,-2.67773 7.02344,-2.67773 z m 19.61133,0 c 1.02107,0 2.07121,0.0815 3.15039,0.24609 1.07918,0.15596 2.19572,0.39426 3.34961,0.71484 l 0,4.10743 c -1.02107,-0.47655 -2.01702,-0.83552 -2.98828,-1.07813 -0.97126,-0.2426 -1.88861,-0.36328 -2.75196,-0.36328 -1.14558,0 -1.99117,0.16294 -2.53906,0.49219 -0.54789,0.32925 -0.82226,0.84199 -0.82226,1.53515 0,0.51988 0.18161,0.92611 0.54687,1.22071 0.37356,0.28593 1.04632,0.53228 2.01758,0.74023 l 2.04297,0.42969 c 2.06704,0.43322 3.53656,1.09083 4.4082,1.97461 0.87164,0.88378 1.30664,2.1406 1.30664,3.76953 0,2.14013 -0.60978,3.7348 -1.83008,4.7832 -1.21199,1.03974 -3.06769,1.56055 -5.5664,1.56055 -1.1788,0 -2.36174,-0.11762 -3.54883,-0.35156 -1.1871,-0.23394 -2.37345,-0.57985 -3.56055,-1.03906 l 0,-4.22461 c 1.1871,0.6585 2.33147,1.15622 3.43555,1.49414 1.11238,0.32925 2.18352,0.49414 3.21289,0.49414 1.04597,0 1.84811,-0.18101 2.4043,-0.54493 0.55619,-0.3639 0.83398,-0.88471 0.83398,-1.56054 0,-0.60652 -0.19235,-1.07505 -0.57422,-1.4043 -0.37356,-0.32925 -1.12492,-0.62288 -2.2539,-0.88281 l -1.85352,-0.42969 c -1.8595,-0.4159 -3.2226,-1.07851 -4.08594,-1.98828 -0.85504,-0.90977 -1.28125,-2.13545 -1.28125,-3.67773 0,-1.93219 0.59758,-3.41729 1.79297,-4.45704 1.1954,-1.03974 2.91293,-1.56054 5.1543,-1.56054 z m 17.23437,0 c 1.02107,0 2.07122,0.0815 3.15039,0.24609 1.07918,0.15596 2.19572,0.39426 3.34961,0.71484 l 0,4.10743 c -1.02106,-0.47655 -2.01702,-0.83552 -2.98828,-1.07813 -0.97126,-0.2426 -1.88861,-0.36328 -2.75195,-0.36328 -1.14559,0 -1.99313,0.16294 -2.54102,0.49219 -0.54789,0.32925 -0.82226,0.84199 -0.82226,1.53515 0,0.51988 0.18357,0.92611 0.54883,1.22071 0.37356,0.28593 1.04632,0.53228 2.01757,0.74023 l 2.04102,0.42969 c 2.06704,0.43322 3.53656,1.09083 4.4082,1.97461 0.87165,0.88378 1.3086,2.1406 1.3086,3.76953 0,2.14013 -0.61173,3.7348 -1.83203,4.7832 -1.212,1.03974 -3.06575,1.56055 -5.56446,1.56055 -1.17879,0 -2.36173,-0.11762 -3.54883,-0.35156 -1.18709,-0.23394 -2.3754,-0.57985 -3.5625,-1.03906 l 0,-4.22461 c 1.1871,0.6585 2.33342,1.15622 3.4375,1.49414 1.11239,0.32925 2.18353,0.49414 3.21289,0.49414 1.04598,0 1.84616,-0.18101 2.40235,-0.54493 0.55619,-0.3639 0.83398,-0.88471 0.83398,-1.56054 0,-0.60652 -0.1904,-1.07505 -0.57226,-1.4043 -0.37356,-0.32925 -1.12492,-0.62288 -2.25391,-0.88281 l -1.85547,-0.42969 c -1.8595,-0.4159 -3.22064,-1.07851 -4.08398,-1.98828 -0.85504,-0.90977 -1.28321,-2.13545 -1.28321,-3.67773 0,-1.93219 0.59758,-3.41729 1.79297,-4.45704 1.1954,-1.03974 2.91489,-1.56054 5.15625,-1.56054 z m -88.68359,0.35156 5.714844,0 6.886718,19.4043 -4.818359,0 -1.171875,-3.53516 -7.496094,0 -1.18164,3.53516 -4.820313,0 z m 23.919922,0 7.197266,0 c 2.581722,0 4.449622,0.40624 5.603512,1.2207 1.16219,0.81447 1.74414,2.11856 1.74414,3.91211 0,0.94443 -0.21139,1.7508 -0.63476,2.41797 -0.42337,0.6585 -1.03852,1.14816 -1.84375,1.46875 1.02937,0.31192 1.82613,0.88806 2.39062,1.72852 0.5645,0.84045 0.84766,1.87205 0.84766,3.09375 0,1.87153 -0.60636,3.26515 -1.81836,4.18359 -1.212,0.91844 -3.05549,1.37891 -5.5293,1.37891 l -7.957028,0 z m -72.169922,1.56836 c -1.2675,0 -1.339938,2.42579 -0.142578,4.76367 0.48913,0.95504 2.076467,4.32383 3.529297,7.48633 1.45282,3.1625 3.078278,5.75 3.611328,5.75 1.46745,0 1.1759,-1.62216 -1.03125,-5.74023 -1.1,-2.05236 -2,-4.30046 -2,-4.9961 0,-0.69565 -0.476134,-1.26367 -1.058594,-1.26367 -0.58251,0 -0.860077,-0.3375 -0.617187,-0.75 0.67279,-1.14263 -1.119526,-5.25 -2.291016,-5.25 z m 100.08789,1.70703 c -1.46104,0 -2.59516,0.56307 -3.40039,1.68945 -0.80523,1.12639 -1.20703,2.71104 -1.20703,4.75586 0,2.03616 0.4018,3.61776 1.20703,4.74414 0.80523,1.12639 1.93935,1.68946 3.40039,1.68946 1.46934,0 2.60688,-0.56307 3.41211,-1.68946 0.80523,-1.12638 1.20703,-2.70798 1.20703,-4.74414 0,-2.04482 -0.4018,-3.62947 -1.20703,-4.75586 -0.80523,-1.12638 -1.94277,-1.68945 -3.41211,-1.68945 z m -23.123046,0.12891 0,4.10742 2.652346,0 c 0.75542,0 1.32663,-0.17295 1.71679,-0.51953 0.39017,-0.34658 0.58594,-0.85933 0.58594,-1.53516 0,-0.66717 -0.19577,-1.17295 -0.58594,-1.51953 -0.39016,-0.35524 -0.96137,-0.5332 -1.71679,-0.5332 z m -25.851563,1.14453 -2.552734,7.71875 5.09375,0 z m 25.851563,6.36719 0,5.08203 2.814456,0 c 0.96295,0 1.68453,-0.21216 2.16601,-0.63672 0.48978,-0.42456 0.73438,-1.06604 0.73438,-1.92383 0,-0.84046 -0.24118,-1.46887 -0.72266,-1.88477 -0.48148,-0.42456 -1.20647,-0.63671 -2.17773,-0.63671 z m -68.494141,9.02539 c -0.198766,0.0209 -0.379706,0.10236 -0.535156,0.25781 -0.69991,0.69991 -0.381454,1.84428 1.003906,3.60547 1.11577,1.41848 2.027344,3.06602 2.027344,3.66211 0,0.59608 0.9,1.64507 2,2.33203 1.1,0.68696 2,1.66779 2,2.17969 0,0.51189 0.755724,1.76439 1.677734,2.7832 0.99601,1.10057 2.042275,1.48702 2.578125,0.95117 1.0553,-1.0553 -5.124529,-9.98998 -6.974609,-10.08398 -0.67024,-0.034 -1.019594,-0.62305 -0.777344,-1.31055 0.588481,-1.67007 -1.608637,-4.52314 -3,-4.37695 z m 14.280225,17.26716 c -1.25079,0 -2.962639,0.77895 -1.582959,2.15862 1.28656,1.28652 3.798828,1.63689 3.798828,0.52929 0,-1.00849 -1.247849,-2.68791 -2.215869,-2.68791 z m 2.4229,3.85198 c -0.11601,-0.008 -0.20782,0.008 -0.273437,0.0488 -1.41683,0.8757 2.015467,4.69141 3.654297,4.0625 0.668008,-0.2563 1.443003,0.40285 1.720703,1.46485 0.47016,1.7978 3.713728,2.84124 3.673828,1.18164 -0.03274,-1.36228 -7.035237,-6.63841 -8.775391,-6.75781 z m 24.400391,12.61328 c -0.258566,0.005 -0.526295,0.0272 -0.802735,0.0664 -2.64889,0.3755 -3.668492,4.08062 -1.757812,6.38282 1.55703,1.8761 3.424092,1.83184 5.382812,-0.12696 2.841244,-2.84118 1.056223,-6.40464 -2.822265,-6.32226 z m 24.703125,4.17187 c -1.502186,-0.0125 -3.640541,2.3769 -2.869141,3.625 1.1778,1.9057 4.558594,1.28025 4.558594,-0.84375 0,-1.0675 -0.492933,-2.24664 -1.095703,-2.61914 -0.178309,-0.1102 -0.379152,-0.16032 -0.59375,-0.16211 z"
         id="path4195"
         transform="translate(383.79066,708.66519)"
         inkscape:connector-curvature="0"
         sodipodi:nodetypes="ssscsssssssscsscccssssssssssssscccssssscccsssssssssscsssssssssssssssscccsssscccsscsscccsssccccsssccccccccccccccscsccsssscccscsccccccccsccccccccccccccccccccccccccccssscscccscscscccccccssssssscccscscscccccccccccccccccsscccsscccsscccssccccccssccccscccsscsscccccccccccccccccccccccccccccccccsssscssssccssccssscssssssssscscsscccsssscccsscsscccscsccccsssscccsssscccsscsscccscsccccsssccccccccccscscccsssccssssssscssssssssssccssscscccccccscscsccssssssssscsssssccccsscscsccscc" />
      <text
         xml:space="preserve"
         style="font-style:normal;font-weight:normal;font-size:26.05360985px;line-height:125%;font-family:sans-serif;letter-spacing:0px;word-spacing:0px;fill:#ffffff;fill-opacity:1;stroke:none;stroke-width:1px;stroke-linecap:butt;stroke-linejoin:miter;stroke-opacity:1"
         x="455.2027"
         y="802.38489"
         id="text4197"
         sodipodi:linespacing="125%"
         transform="scale(0.97881942,1.0216389)"><tspan
           sodipodi:role="line"
           id="tspan4199"
           x="455.2027"
           y="802.38489"
           style="font-style:normal;font-variant:normal;font-weight:bold;font-stretch:normal;font-family:'DejaVu Sans';-inkscape-font-specification:'DejaVu Sans Bold';fill:#ffffff">SEBRAE</tspan></text>
    </g>
  </g>
</svg>
