<?xml version="1.0" encoding="UTF-8" standalone="no"?>
<svg
   xmlns:dc="http://purl.org/dc/elements/1.1/"
   xmlns:cc="http://creativecommons.org/ns#"
   xmlns:rdf="http://www.w3.org/1999/02/22-rdf-syntax-ns#"
   xmlns:svg="http://www.w3.org/2000/svg"
   xmlns="http://www.w3.org/2000/svg"
   xmlns:sodipodi="http://sodipodi.sourceforge.net/DTD/sodipodi-0.dtd"
   xmlns:inkscape="http://www.inkscape.org/namespaces/inkscape"
   width="512"
   height="512"
   viewBox="0 0 512 512"
   version="1.1"
   id="svg2"
   inkscape:version="0.91 r13725"
   sodipodi:docname="logotipo-white.svg">
  <metadata
     id="metadata17">
    <rdf:RDF>
      <cc:Work
         rdf:about="">
        <dc:format>image/svg+xml</dc:format>
        <dc:type
           rdf:resource="http://purl.org/dc/dcmitype/StillImage" />
        <dc:title>SVG / Logo / White</dc:title>
      </cc:Work>
    </rdf:RDF>
  </metadata>
  <defs
     id="defs15" />
  <sodipodi:namedview
     pagecolor="#ffffff"
     bordercolor="#666666"
     borderopacity="1"
     objecttolerance="10"
     gridtolerance="10"
     guidetolerance="10"
     inkscape:pageopacity="0"
     inkscape:pageshadow="2"
     inkscape:window-width="1366"
     inkscape:window-height="744"
     id="namedview13"
     showgrid="false"
     inkscape:zoom="1.1855469"
     inkscape:cx="256"
     inkscape:cy="256"
     inkscape:window-x="0"
     inkscape:window-y="24"
     inkscape:window-maximized="1"
     inkscape:current-layer="svg2" />
  <!-- Generator: Sketch 52.6 (67491) - http://www.bohemiancoding.com/sketch -->
  <title
     id="title4">SVG / Logo / White</title>
  <desc
     id="desc6">Created with Sketch.</desc>
  <g
     id="SVG-/-Logo-/-White"
     style="fill:none;fill-rule:evenodd;stroke:none;stroke-width:1"
     transform="matrix(4.1877906,0,0,4.1877906,5.9999988,78.019423)">
    <g
       id="thefarma-logo"
       style="fill:#fefefe">
      <path
         d="m 0,65 10,0 0,3.572519 -3.29948,0 0,15.427481 -3.5016279,0 0,-15.427481 L 0,68.572519 0,65 Z m 12.33675,0.58775 3.447,0 0,6.721 c 0.674,-0.583 1.348,-1.019 2.03,-1.3085 0.6785,-0.2895 1.3695,-0.4365 2.065,-0.4365 1.361,0 2.51,0.4715 3.443,1.417 0.7985,0.8165 1.196,2.017 1.196,3.598 l 0,9.084 -3.395,0 0,-6.0255 c 0,-1.5895 -0.0735,-2.6695 -0.2245,-3.231 -0.1515,-0.566 -0.4105,-0.985 -0.7775,-1.266 -0.363,-0.276 -0.8165,-0.4145 -1.3525,-0.4145 -0.695,0 -1.2955,0.2335 -1.7965,0.6955 -0.497,0.4625 -0.8425,1.093 -1.037,1.892 -0.099,0.4145 -0.151,1.3565 -0.151,2.829 l 0,5.5205 -3.447,0 0,-19.075 z m 22.125,13.166 -3.9005,0 c 0.16,0.981 0.587,1.7625 1.2785,2.3455 0.6855,0.5745 1.5625,0.8635 2.622,0.8685 l 0,3.032 c -2.1315,-0.009 -3.8705,-0.687 -5.214,-2.0385 -1.352,-1.3565 -2.03,-3.0585 -2.03,-5.1015 0,-2.0955 0.678,-3.836 2.03,-5.2185 1.352,-1.386 3.0455,-2.0775 5.0885,-2.0775 l 0.1255,0.001 0,2.954 c -0.94,0.01 -1.7635,0.2735 -2.4795,0.7945 -0.4535,0.328 -0.877,0.911 -1.2655,1.745 l 3.745,0 0,2.6955 z m 0,3.214 0.026,0 c 1.287,0 2.3885,-0.4535 3.313,-1.361 l 2.894,1.3695 c -0.7215,1.028 -1.5895,1.788 -2.596,2.2855 -1.0105,0.492 -2.2075,0.738 -3.594,0.738 l -0.043,0 0,-3.032 z m 7.179,-3.214 -7.179,0 0,-2.6955 3.745,0 c -0.229,-0.7515 -0.678,-1.3645 -1.3475,-1.836 -0.674,-0.4705 -1.4515,-0.704 -2.3415,-0.704 l -0.056,5e-4 0,-2.954 c 2.107,0.0265 3.827,0.717 5.1575,2.0685 1.356,1.382 2.0345,3.2005 2.0345,5.468 l -0.013,0.6525 z M 44,66 l 9.227,0 0,3.4215 -5.702,0 0,3.395 5.702,0 0,3.4215 -5.702,0 0,8.371 -3.525,0 L 44,66 Z m 18.583,18.91405 c -0.2075,0.021 -0.4195,0.0315 -0.635,0.0315 -1.784,0 -3.3215,-0.6865 -4.622,-2.064 -1.3,-1.374 -1.948,-3.0845 -1.948,-5.1275 0,-2.121 0.631,-3.8575 1.8875,-5.214 1.257,-1.352 2.782,-2.0305 4.5785,-2.0305 0.2515,0 0.498,0.015 0.739,0.043 l 0,3.1195 -0.0305,0 c -1.071,0 -1.9605,0.3755 -2.665,1.1315 -0.7085,0.7515 -1.0625,1.7195 -1.0625,2.8985 0,1.1875 0.3585,2.164 1.08,2.9325 0.7215,0.765 1.6065,1.1495 2.661,1.1495 l 0.017,-5e-4 0,3.1305 z m 3.6025,-14.0675 3.4475,0 0,13.7625 -3.4475,0 0,-1.4645 c -0.674,0.6395 -1.352,1.097 -2.03,1.378 -0.4935,0.204 -1.0185,0.3355 -1.5725,0.3915 l 0,-3.1305 c 1.0765,-0.004 1.9735,-0.3795 2.6825,-1.131 0.7175,-0.7515 1.076,-1.741 1.076,-2.9635 0,-1.1965 -0.3585,-2.164 -1.076,-2.9075 -0.706,-0.7315 -1.603,-1.103 -2.6825,-1.1095 l 0,-3.1195 c 0.555,0.0655 1.084,0.2055 1.59,0.4195 0.7255,0.3065 1.395,0.773 2.0125,1.387 l 0,-1.5125 z m 6.12115,1.5e-4 2.9805,0 0,1.7495 c 0.32,-0.6825 0.7425,-1.2005 1.27,-1.555 0.531,-0.354 1.11,-0.5315 1.7365,-0.5315 0.4445,0 0.9115,0.117 1.399,0.3545 l -1.071,2.9805 c -0.4015,-0.203 -0.734,-0.3025 -0.993,-0.3025 -0.5275,0 -0.977,0.3285 -1.3395,0.9845 -0.3675,0.657 -0.5485,1.944 -0.5485,3.862 l 0.013,0.67 0,5.55 -3.447,0 0,-13.762 z m 9.0669,0 3.447,0 0,1.607 c 0.5915,-0.6525 1.2485,-1.14 1.974,-1.46 0.721,-0.324 1.512,-0.484 2.367,-0.484 0.8595,0 1.6415,0.212 2.3325,0.6355 0.696,0.4225 1.253,1.045 1.6765,1.8575 0.548,-0.8125 1.222,-1.435 2.0215,-1.8575 0.7985,-0.4235 1.6755,-0.6355 2.622,-0.6355 0.9805,0 1.844,0.229 2.5875,0.6825 0.747,0.454 1.278,1.05 1.607,1.78 0.3235,0.7345 0.4875,1.9265 0.4875,3.5765 l 0,8.06 -3.4465,0 0,-6.9545 c 0,-1.5545 -0.1945,-2.609 -0.5875,-3.157 -0.393,-0.549 -0.985,-0.8255 -1.767,-0.8255 -0.6005,0 -1.136,0.1685 -1.6065,0.5055 -0.4755,0.3325 -0.8295,0.7995 -1.059,1.3905 -0.229,0.5925 -0.3455,1.5425 -0.3455,2.8555 l 0,6.1855 -3.4465,0 0,-6.639 c 0,-1.2265 -0.091,-2.1165 -0.2765,-2.665 -0.1815,-0.553 -0.458,-0.959 -0.821,-1.231 -0.367,-0.268 -0.812,-0.402 -1.3305,-0.402 -0.5785,0 -1.106,0.1685 -1.5765,0.51 -0.475,0.3415 -0.825,0.8165 -1.0625,1.4295 -0.2335,0.6135 -0.35,1.581 -0.35,2.8985 l 0,6.099 -3.447,0 0,-13.762 z m 30.97115,14.06735 c -0.2075,0.021 -0.4195,0.0315 -0.635,0.0315 -1.784,0 -3.3215,-0.6865 -4.622,-2.064 -1.3,-1.374 -1.948,-3.0845 -1.948,-5.1275 0,-2.121 0.631,-3.8575 1.8875,-5.214 1.257,-1.352 2.782,-2.0305 4.579,-2.0305 0.251,0 0.4975,0.015 0.7385,0.043 l 0,3.1195 -0.03,0 c -1.0715,0 -1.961,0.3755 -2.6655,1.1315 -0.7085,0.7515 -1.0625,1.7195 -1.0625,2.8985 0,1.1875 0.3585,2.164 1.08,2.9325 0.7215,0.765 1.607,1.1495 2.661,1.1495 l 0.017,-5e-4 0,3.1305 z m 3.6025,-14.0675 3.4475,0 0,13.7625 -3.4475,0 0,-1.4645 c -0.674,0.6395 -1.3515,1.097 -2.0295,1.378 -0.494,0.204 -1.019,0.3355 -1.573,0.3915 l 0,-3.1305 c 1.0765,-0.004 1.9735,-0.3795 2.6825,-1.131 0.7175,-0.7515 1.076,-1.741 1.076,-2.9635 0,-1.1965 -0.3585,-2.164 -1.076,-2.9075 -0.706,-0.7315 -1.603,-1.103 -2.6825,-1.1095 l 0,-3.1195 c 0.555,0.0655 1.084,0.2055 1.59,0.4195 0.7255,0.3065 1.395,0.773 2.0125,1.387 l 0,-1.5125 z"
         id="Combined-Shape"
         inkscape:connector-curvature="0" />
      <path
         d="M 61.468299,0.05566049 C 61.473531,0.03713947 61.478748,0.01858612 61.48395,0 c 1.187,12.036 14.066,12.7085 15.9675,21.243 1.663,7.4725 -3.198,14.008 -7.6445,18.7835 0.0935,-0.25 0.188,-0.508 0.2825,-0.7745 0.6,-1.704 1.2025,-3.7675 1.419,-6.06 0.112,-1.143 0.116,-2.338 -0.004,-3.5375 -0.125,-1.2 -0.3735,-2.4025 -0.7455,-3.5595 -0.1795,-0.5775 -0.396,-1.154 -0.6425,-1.6985 -0.2535,-0.574 -0.549,-1.0945 -0.86,-1.611 -0.6405,-1.016 -1.3925,-1.922 -2.174,-2.7275 -2.974116,-3.046556 -5.422656,-4.603707 -6.751291,-8.65914 0.223486,0.861071 0.558512,1.744839 1.033741,2.66384 0.332,0.6475 0.789,1.334 1.3535,2.0275 2.4445,3.021 4.328,4.661 6.0485,8.543 1.3605,3.076 1.3945,6.4565 1.04,9.7765 -0.347,1.5695 -0.861,3.001 -1.371,4.246 -0.2645,0.6405 -0.529,1.2345 -0.779,1.773 C 65.4874,30.2892 53.4809,30.9397 52.3194,19.7937 51.1274,8.3967 60.9449,0.4692 61.4684,0.0552 Z M 78.096,29.03665 l 0,9.276 c 0,2.2795 -0.598,4.426 -1.6455,6.291 l 5.94,5.834 c 1.4865,1.46 1.508,3.871 0.048,5.358 -1.46,1.4865 -3.872,1.5075 -5.358,0.048 l -6.103,-5.9945 c -1.747,0.8855 -3.7195,1.385 -5.8025,1.385 l -13.254,0 C 44.8145,51.23415 39,45.41965 39,38.31265 l 0,-13.2535 c 0,-7.1035 5.809,-12.916 12.911,-12.9215 -0.522,2.0005 -0.781,4.1695 -0.629,6.4765 -3.556,1.07 -6.166,4.3825 -6.166,8.2755 l 0,9.5455 c 0,4.7515 3.887,8.639 8.639,8.639 l 9.397,0 c 3.123,0 5.873,-1.6795 7.3915,-4.1795 3.021,-3.2855 6.1545,-7.311 7.5525,-11.858 z"
         id="path11"
         inkscape:connector-curvature="0" />
    </g>
  </g>
</svg>
