<?xml version="1.0" encoding="UTF-8" standalone="no"?>
<!-- Creator: CorelDRAW X7 -->

<svg
   xmlns:dc="http://purl.org/dc/elements/1.1/"
   xmlns:cc="http://creativecommons.org/ns#"
   xmlns:rdf="http://www.w3.org/1999/02/22-rdf-syntax-ns#"
   xmlns:svg="http://www.w3.org/2000/svg"
   xmlns="http://www.w3.org/2000/svg"
   xmlns:sodipodi="http://sodipodi.sourceforge.net/DTD/sodipodi-0.dtd"
   xmlns:inkscape="http://www.inkscape.org/namespaces/inkscape"
   xml:space="preserve"
   width="512"
   height="512"
   version="1.1"
   style="fill-rule:evenodd"
   viewBox="0 0 14449.778 14449.778"
   inkscape:version="0.91 r13725"
   sodipodi:docname="logo-white.svg"
   inkscape:export-filename="/home/weslley/icon.png"
   inkscape:export-xdpi="90"
   inkscape:export-ydpi="90"
   id="svg2"><metadata
     id="metadata39"><rdf:RDF><cc:Work
         rdf:about=""><dc:format>image/svg+xml</dc:format><dc:type
           rdf:resource="http://purl.org/dc/dcmitype/StillImage" /></cc:Work></rdf:RDF></metadata><sodipodi:namedview
     pagecolor="#ffffff"
     bordercolor="#666666"
     borderopacity="1"
     objecttolerance="10"
     gridtolerance="10"
     guidetolerance="10"
     inkscape:pageopacity="0"
     inkscape:pageshadow="2"
     inkscape:window-width="1366"
     inkscape:window-height="744"
     id="namedview37"
     showgrid="false"
     inkscape:zoom="0.29638673"
     inkscape:cx="137.06754"
     inkscape:cy="256"
     inkscape:window-x="0"
     inkscape:window-y="24"
     inkscape:window-maximized="1"
     inkscape:current-layer="g4173" /><defs
     id="defs4"><style
       type="text/css"
       id="style6">
    .fil1 {fill:#E0E2E2}
    .fil0 {fill:#129D94}
    .fil2 {fill:url(#id1);fill-rule:nonzero}
    .fil3 {fill:url(#id2);fill-rule:nonzero}
   </style><clipPath
       id="id0"><rect
         x="6475"
         y="9228"
         width="8435"
         height="10685"
         id="rect9" /></clipPath><linearGradient
       id="id1"
       gradientUnits="userSpaceOnUse"
       x1="13019.2"
       y1="14048.7"
       x2="10183.6"
       y2="11688.4"><stop
         offset="0"
         style="stop-opacity:1; stop-color:#45C0C1"
         id="stop12" /><stop
         offset="1"
         style="stop-opacity:1; stop-color:#0BB5B0"
         id="stop14" /></linearGradient><linearGradient
       id="id2"
       gradientUnits="userSpaceOnUse"
       x1="10060.2"
       y1="14660.5"
       x2="11082.5"
       y2="16200.4"><stop
         offset="0"
         style="stop-opacity:1; stop-color:#45C0C1"
         id="stop17" /><stop
         offset="1"
         style="stop-opacity:1; stop-color:#06BAB5"
         id="stop19" /></linearGradient><linearGradient
       id="id1-1"
       gradientUnits="userSpaceOnUse"
       x1="13019.2"
       y1="14048.7"
       x2="10183.6"
       y2="11688.4"><stop
         offset="0"
         style="stop-opacity:1; stop-color:#45C0C1"
         id="stop12-6" /><stop
         offset="1"
         style="stop-opacity:1; stop-color:#0BB5B0"
         id="stop14-4" /></linearGradient><linearGradient
       id="id2-6"
       gradientUnits="userSpaceOnUse"
       x1="10060.2"
       y1="14660.5"
       x2="11082.5"
       y2="16200.4"><stop
         offset="0"
         style="stop-opacity:1; stop-color:#45C0C1"
         id="stop17-1" /><stop
         offset="1"
         style="stop-opacity:1; stop-color:#06BAB5"
         id="stop19-2" /></linearGradient></defs><g
     id="Camada_x0020_1"
     transform="translate(-3275.3312,-7625.1973)"><metadata
       id="CorelCorpID_0Corel-Layer" /><sodipodi:namedview
       id="base"
       pagecolor="#ffffff"
       bordercolor="#666666"
       borderopacity="1.0"
       inkscape:pageopacity="0.0"
       inkscape:pageshadow="2"
       inkscape:zoom="1.1660156"
       inkscape:cx="256"
       inkscape:cy="256"
       inkscape:document-units="px"
       inkscape:current-layer="layer1"
       showgrid="false"
       inkscape:window-width="1366"
       inkscape:window-height="744"
       inkscape:window-x="0"
       inkscape:window-y="24"
       inkscape:window-maximized="1" /><g
       id="layer1"
       inkscape:label="Camada 1"
       inkscape:groupmode="layer" /><g
       id="g4173"
       transform="translate(5.1093612e-4,8.1781807e-5)"><g
         transform="matrix(1.3091065,0,0,1.3091065,-3494.7995,-4223.6117)"
         id="_880717725264-8"
         style="fill:#ffffff;fill-rule:evenodd"><path
           style="fill:#ffffff"
           inkscape:connector-curvature="0"
           id="path31-3"
           d="m 13751,14675 0,1686 c 0,414 -109,804 -299,1143 l 1080,1061 c 270,265 274,703 8,974 -265,270 -703,274 -974,8 l -1109,-1089 c -318,161 -676,252 -1055,252 l -2409,0 c -1292,0 -2349,-1057 -2349,-2349 l 0,-2410 c 0,-1291 1056,-2347 2347,-2348 -95,363 -142,758 -114,1177 -647,194 -1121,797 -1121,1504 l 0,1735 c 0,864 707,1571 1570,1571 l 1709,0 c 567,0 1067,-306 1343,-760 549,-597 1119,-1329 1373,-2155 z"
           class="fil1" /><path
           style="fill:#ffffff;fill-rule:nonzero"
           inkscape:connector-curvature="0"
           id="path33-6"
           d="m 10453,11222 c -179,-761 99,-1187 278,-1826 216,2188 2557,2310 2903,3862 302,1358 -582,2546 -1390,3414 17,-45 34,-92 52,-141 109,-309 218,-684 258,-1101 20,-208 21,-425 -1,-643 -23,-218 -68,-437 -136,-647 -32,-105 -72,-210 -117,-309 -46,-104 -99,-199 -156,-293 -116,-185 -253,-349 -395,-496 -597,-611 -1078,-893 -1296,-1820 z"
           class="fil2" /><path
           style="fill:#ffffff;fill-rule:nonzero"
           inkscape:connector-curvature="0"
           id="path35-1"
           d="m 12244,15651 c 65,-603 58,-1218 -189,-1777 -313,-706 -655,-1004 -1099,-1553 -103,-126 -186,-251 -246,-368 -474,-917 -179,-1650 21,-2557 -95,76 -1882,1527 -1666,3598 211,2026 2394,1908 2788,3751 46,-98 94,-206 142,-322 93,-226 186,-487 249,-772 z"
           class="fil3" /></g></g><g
       id="_880717725264"
       transform="matrix(1.0227394,0,0,1.0227394,-207.61044,-620.44997)" /></g></svg>