<?xml version="1.0" encoding="UTF-8"?>
<svg width="24px" height="24px" viewBox="0 0 24 24" version="1.1" xmlns="http://www.w3.org/2000/svg" xmlns:xlink="http://www.w3.org/1999/xlink">
    <!-- Generator: Sketch 52.2 (67145) - http://www.bohemiancoding.com/sketch -->
    <title>mdpi/Icons/shopping-bag/normal</title>
    <desc>Created with Sketch.</desc>
    <g id="Icons/shopping-bag/normal" stroke="none" stroke-width="1" fill="none" fill-rule="evenodd">
        <g id="new-shopping-bag">
            <rect id="Shape" x="0" y="0" width="24" height="24"></rect>
            <path d="M12.2319782,2 C9.69592131,2 7.61659362,4.07932769 7.61659362,6.61538462 L4.53967054,6.61538462 C4.13101669,6.61538462 3.79447823,6.93389385 3.77043977,7.34254769 L3.001209,21.1887015 C2.98919054,21.3990385 3.06731516,21.6093754 3.21154593,21.7596154 C3.35577669,21.9158662 3.56010285,22 3.77043977,22 L20.6935167,22 C20.9038536,22 21.1081798,21.9158662 21.2524105,21.7596154 C21.3966413,21.6093754 21.4747675,21.3990385 21.4627475,21.1887015 L20.6935167,7.34254769 C20.6694782,6.93389385 20.3329398,6.61538462 19.9242859,6.61538462 L16.8473628,6.61538462 C16.8473628,4.07932769 14.7680367,2 12.2319782,2 Z M12.2319782,3.53846154 C13.9266905,3.53846154 15.3089013,4.92067385 15.3089013,6.61538462 L9.15505516,6.61538462 C9.15505516,4.92067385 10.5372675,3.53846154 12.2319782,3.53846154 Z M5.26683362,8.15384615 L7.61659362,8.15384615 L7.61659362,11.2307692 L9.15505516,11.2307692 L9.15505516,8.15384615 L15.3089013,8.15384615 L15.3089013,11.2307692 L16.8473628,11.2307692 L16.8473628,8.15384615 L19.1971228,8.15384615 L19.876209,20.4615385 L4.58774746,20.4615385 L5.26683362,8.15384615 Z" id="Shape" fill="#000000" fill-rule="nonzero"></path>
        </g>
    </g>
</svg>