<?xml version="1.0" encoding="UTF-8"?>
<svg width="16px" height="16px" viewBox="0 0 16 16" version="1.1" xmlns="http://www.w3.org/2000/svg" xmlns:xlink="http://www.w3.org/1999/xlink">
    <!-- Generator: Sketch 52.2 (67145) - http://www.bohemiancoding.com/sketch -->
    <title>mdpi/icons/row/cards</title>
    <desc>Created with Sketch.</desc>
    <g id="icons/row/cards" stroke="none" stroke-width="1" fill="none" fill-rule="evenodd">
        <g id="new-credit-card">
            <rect id="Shape" x="0" y="0" width="16" height="16"></rect>
            <path d="M6.40625,3 C5.777344,3 5.230469,3.421875 5.0625,4 L4.484375,4 C4.230469,4 3.976563,4.066406 3.761719,4.1875 C3.695313,4.222656 3.628906,4.265625 3.574219,4.3125 C3.566406,4.316406 2.039063,5.535156 1,6.359375 L1,7.640625 L4.242188,5.0625 C4.316406,5.019531 4.398438,5 4.484375,5 L5,5 L5,8.664063 L4.066406,9.035156 L4.433594,9.964844 L9.3125,8.039063 C9.371094,8.011719 9.433594,8 9.5,8 C9.78125,8 10,8.21875 10,8.5 C10,8.652344 9.933594,8.78125 9.832031,8.871094 L8.828125,9.597656 L8.824219,9.601563 C7.820313,10.355469 7.628906,10.542969 6.625,11.667969 C5.699219,12.710938 4.875,13 4,13 L1,13 L1,14 L4,14 C5.125,14 6.300781,13.539063 7.375,12.332031 C8.007813,11.617188 8.320313,11.304688 8.679688,11 L14.59375,11 C15.355469,11 16,10.386719 16,9.625 L16,4.375 C16,3.613281 15.355469,3 14.59375,3 L6.40625,3 Z M6.40625,4 L14.59375,4 C14.832031,4 15,4.171875 15,4.375 L15,5 L6,5 L6,4.375 C6,4.171875 6.167969,4 6.40625,4 Z M6,6 L15,6 L15,9.625 C15,9.828125 14.832031,10 14.59375,10 L9.976563,10 L10.472656,9.640625 L10.492188,9.625 C10.804688,9.351563 11,8.945313 11,8.5 C11,7.675781 10.324219,7 9.5,7 C9.300781,7 9.109375,7.039063 8.9375,7.109375 L6,8.273438 L6,6 Z" id="Shape" fill="#000000" fill-rule="nonzero"></path>
        </g>
    </g>
</svg>