<?xml version="1.0" encoding="UTF-8"?>
<svg width="16px" height="16px" viewBox="0 0 16 16" version="1.1" xmlns="http://www.w3.org/2000/svg" xmlns:xlink="http://www.w3.org/1999/xlink">
    <!-- Generator: Sketch 52.2 (67145) - http://www.bohemiancoding.com/sketch -->
    <title>mdpi/Icons/row/history</title>
    <desc>Created with Sketch.</desc>
    <g id="Icons/row/history" stroke="none" stroke-width="1" fill="none" fill-rule="evenodd">
        <g id="recents">
            <rect id="Rectangle" x="0" y="0" width="16" height="16"></rect>
            <path d="M8.5,2 C6.589844,2 4.878906,2.835938 3.6875,4.152344 L2,2.464844 L2,6 L5.535156,6 L4.394531,4.859375 C5.402344,3.722656 6.859375,3 8.5,3 C11.542969,3 14,5.457031 14,8.5 C14,11.542969 11.542969,14 8.5,14 C5.457031,14 3,11.542969 3,8.5 L3,8 L2,8 L2,8.5 C2,12.085938 4.914063,15 8.5,15 C12.085938,15 15,12.085938 15,8.5 C15,4.914063 12.085938,2 8.5,2 Z M8,4 L8,9 L11,9 L11,8 L9,8 L9,4 L8,4 Z" id="Shape" fill-opacity="0.797073143" fill="#000000" fill-rule="nonzero"></path>
        </g>
    </g>
</svg>