<?xml version="1.0" encoding="UTF-8"?>
<svg width="24px" height="24px" viewBox="0 0 24 24" version="1.1" xmlns="http://www.w3.org/2000/svg" xmlns:xlink="http://www.w3.org/1999/xlink">
    <!-- Generator: Sketch 52.2 (67145) - http://www.bohemiancoding.com/sketch -->
    <title>Icons / notification / Black</title>
    <desc>Created with Sketch.</desc>
    <g id="Icons-/-notification-/-Black" stroke="none" stroke-width="1" fill="none" fill-rule="evenodd">
        <g id="notification" fill="#000000" fill-rule="nonzero">
            <path d="M15.998047,0 C13.950547,0 11.903797,0.78175 10.341797,2.34375 L8.355469,4.328125 C7.2314687,5.452125 5.8955,6.327828 4.4375,6.923828 L17.074219,19.560547 C17.670219,18.102547 18.545922,16.767578 19.669922,15.642578 L21.65625,13.65625 C24.324968,10.987532 24.70531,6.906015 22.814453,3.8242188 C23.5347316,3.50306787 23.9990393,2.78863059 24,2 C24,0.8954305 23.1045695,0 22,0 C21.2113694,0.000960560973 20.496932,0.465268308 20.175781,1.1855469 C18.89741,0.4008197 17.449299,0 15.998047,0 Z M1.9902344,6.990234 C1.58331122,6.99034078 1.21702517,7.23698938 1.06390315,7.61400414 C0.910781129,7.9910189 1.00135732,8.42321904 1.2929688,8.707031 L6.7167969,14.130859 C5.69392654,14.4682889 5.0021592,15.4229122 5,16.5 C5,17.8807119 6.11928813,19 7.5,19 C8.57728773,18.9989605 9.53275877,18.3079361 9.871094,17.285156 L15.292969,22.707031 C15.5437856,22.9682718 15.916236,23.0735066 16.2666781,22.9821498 C16.6171201,22.890793 16.890793,22.6171201 16.9821498,22.2666781 C17.0735066,21.916236 16.9682718,21.5437856 16.707031,21.292969 L2.7070312,7.292969 C2.51876023,7.09943604 2.26023619,6.9902499 1.9902344,6.990234 Z" id="Shape"></path>
        </g>
    </g>
</svg>