<?xml version="1.0" encoding="UTF-8"?>
<svg width="24px" height="24px" viewBox="0 0 24 24" version="1.1" xmlns="http://www.w3.org/2000/svg" xmlns:xlink="http://www.w3.org/1999/xlink">
    <!-- Generator: Sketch 52.2 (67145) - http://www.bohemiancoding.com/sketch -->
    <title>Glyphs / User / Gray</title>
    <desc>Created with Sketch.</desc>
    <g id="Glyphs-/-User-/-Gray" stroke="none" stroke-width="1" fill="none" fill-rule="evenodd" fill-opacity="0.32">
        <path d="M19.3548387,19.4189589 C21.2662088,17.5239523 22.4516129,14.89782 22.4516129,12 C22.4516129,6.23690323 17.7630968,1.5483871 12,1.5483871 C6.23690323,1.5483871 1.5483871,6.23690323 1.5483871,12 C1.5483871,14.89782 2.73379115,17.5239523 4.64516129,19.4189589 L4.64516129,18.5806452 C4.64516129,15.8012903 6.89806452,13.5483871 9.67741935,13.5483871 L14.3225806,13.5483871 C17.1019355,13.5483871 19.3548387,15.8012903 19.3548387,18.5806452 L19.3548387,19.4189589 Z M12,0 C18.6274839,0 24,5.37251613 24,12 C24,18.6274839 18.6274839,24 12,24 C5.37251613,24 0,18.6274839 0,12 C0,5.37251613 5.37251613,0 12,0 Z M16.0000645,7.99993548 C16.0000645,10.2090968 14.2093548,11.9998065 12.0001935,11.9998065 C9.79064516,11.9998065 7.99993548,10.2090968 7.99993548,7.99993548 C7.99993548,5.79077419 9.79064516,4.00006452 12.0001935,4.00006452 C14.2093548,4.00006452 16.0000645,5.79077419 16.0000645,7.99993548 Z" id="Fill-5" fill="#000000"></path>
    </g>
</svg>