<?xml version="1.0" encoding="UTF-8"?>
<svg width="24px" height="24px" viewBox="0 0 24 24" version="1.1" xmlns="http://www.w3.org/2000/svg" xmlns:xlink="http://www.w3.org/1999/xlink">
    <!-- Generator: Sketch 52.2 (67145) - http://www.bohemiancoding.com/sketch -->
    <title>Icons/barcode</title>
    <desc>Created with Sketch.</desc>
    <g id="Icons/barcode" stroke="none" stroke-width="1" fill="none" fill-rule="evenodd">
        <g id="ic/code/new">
            <rect id="Shape" x="0" y="0" width="24" height="24"></rect>
            <path d="M3.80547254,3.00009982 C3.35423617,3.00714553 2.99390277,3.37779131 3.00008217,3.82853966 L3.00008217,20.1738647 C2.99590924,20.4686003 3.15093331,20.7427485 3.40579262,20.8913327 C3.66065192,21.0399169 3.97586111,21.0399169 4.23072042,20.8913327 C4.48557973,20.7427485 4.64060379,20.4686003 4.63643087,20.1738647 L4.63643087,3.82853966 C4.63945929,3.60763233 4.5528325,3.39490912 4.39628876,3.23883984 C4.23974501,3.08277055 4.02661909,2.99664954 3.80547254,3.00009982 Z M7.07816994,3.00009982 C6.62693356,3.00714553 6.26660017,3.37779131 6.27277956,3.82853966 L6.27277956,20.1738647 C6.26860664,20.4686003 6.4236307,20.7427485 6.67849001,20.8913327 C6.93334932,21.0399169 7.24855851,21.0399169 7.50341781,20.8913327 C7.75827712,20.7427485 7.91330119,20.4686003 7.90912826,20.1738647 L7.90912826,3.82853966 C7.91215668,3.60763233 7.82552989,3.39490912 7.66898615,3.23883984 C7.51244241,3.08277055 7.29931648,2.99664954 7.07816994,3.00009982 Z M20.1689595,3.00009982 C19.7177231,3.00714553 19.3573897,3.37779131 19.3635691,3.82853966 L19.3635691,20.1738647 C19.3593962,20.4686003 19.5144203,20.7427485 19.7692796,20.8913327 C20.0241389,21.0399169 20.3393481,21.0399169 20.5942074,20.8913327 C20.8490667,20.7427485 21.0040908,20.4686003 20.9999178,20.1738647 L20.9999178,3.82853966 C21.0029462,3.60763233 20.9163195,3.39490912 20.7597757,3.23883984 C20.603232,3.08277055 20.3901061,2.99664954 20.1689595,3.00009982 Z M10.3636513,3.0112734 C9.91201906,3.0112734 9.54547696,3.37740868 9.54547696,3.82853966 L9.54547696,20.1738647 C9.54547696,20.6249957 9.91201906,20.991131 10.3636513,20.991131 L12.8181743,20.991131 C13.2698066,20.991131 13.6363487,20.6249957 13.6363487,20.1738647 L13.6363487,3.82853966 C13.6363487,3.37740868 13.2698066,3.0112734 12.8181743,3.0112734 L10.3636513,3.0112734 Z M16.0908717,3.0112734 C15.6392395,3.0112734 15.2726974,3.37740868 15.2726974,3.82853966 L15.2726974,20.1738647 C15.2726974,20.6249957 15.6392395,20.991131 16.0908717,20.991131 L16.9090461,20.991131 C17.3606783,20.991131 17.7272204,20.6249957 17.7272204,20.1738647 L17.7272204,3.82853966 C17.7272204,3.37740868 17.3606783,3.0112734 16.9090461,3.0112734 L16.0908717,3.0112734 Z" id="Shape" fill="#000000" fill-rule="nonzero"></path>
        </g>
    </g>
</svg>