<?xml version="1.0" encoding="UTF-8"?>
<svg width="24px" height="24px" viewBox="0 0 24 24" version="1.1" xmlns="http://www.w3.org/2000/svg" xmlns:xlink="http://www.w3.org/1999/xlink">
    <!-- Generator: Sketch 52.2 (67145) - http://www.bohemiancoding.com/sketch -->
    <title>Icons/location</title>
    <desc>Created with Sketch.</desc>
    <g id="Icons/location" stroke="none" stroke-width="1" fill="none" fill-rule="evenodd">
        <g id="Group-3">
            <path d="M12,0.981132075 C8.13,0.981132075 5,4.11113208 5,7.98113208 C5,13.2311321 12,20.9811321 12,20.9811321 C12,20.9811321 19,13.2311321 19,7.98113208 C19,4.11113208 15.87,0.981132075 12,0.981132075 L12,0.981132075 Z M12,10.4811321 C10.62,10.4811321 9.5,9.36113208 9.5,7.98113208 C9.5,6.60113208 10.62,5.48113208 12,5.48113208 C13.38,5.48113208 14.5,6.60113208 14.5,7.98113208 C14.5,9.36113208 13.38,10.4811321 12,10.4811321 L12,10.4811321 Z" id="Shape" fill-opacity="0.797073143" fill="#000000"></path>
            <polygon id="Shape" points="0 0 24 0 24 24 0 24"></polygon>
        </g>
    </g>
</svg>