<?xml version="1.0" encoding="UTF-8"?>
<svg width="16px" height="16px" viewBox="0 0 16 16" version="1.1" xmlns="http://www.w3.org/2000/svg" xmlns:xlink="http://www.w3.org/1999/xlink">
    <!-- Generator: Sketch 48.1 (47250) - http://www.bohemiancoding.com/sketch -->
    <title>pills</title>
    <desc>Created with Sketch.</desc>
    <defs></defs>
    <g id="2.2-Search" stroke="none" stroke-width="1" fill="none" fill-rule="evenodd" transform="translate(-24.000000, -596.000000)">
        <g id="Stacked-Group" transform="translate(24.000000, 188.000000)">
            <g id="Components/Row/Search-Result-Copy-6" transform="translate(0.000000, 384.000000)">
                <g id="pills" transform="translate(0.000000, 24.000000)">
                    <rect id="Shape" x="0" y="0" width="16" height="16"></rect>
                    <path d="M3.82540765,0 C1.71653805,0.000347826087 0.000347826087,1.72379892 0,3.841712 C0.000347826087,4.001712 0.00067933913,5.82713043 0.00067933913,7.65217391 C0.00067933913,9.49252174 0.000347826087,11.3318532 0,11.4626358 C0.000347826087,12.4887228 0.398505426,13.4534511 1.12024456,14.1786685 C1.84302717,14.9045816 2.80382609,15.3043478 3.82608696,15.3043478 C4.91234783,15.3043478 5.94040765,14.8325652 6.65692939,14.048913 C5.76405983,13.037087 5.2173913,11.7130435 5.2173913,10.2608696 C5.2173913,9.32104348 5.44845635,8.43582609 5.8505433,7.65217391 L0.695652174,7.65217391 C0.695652174,5.94886957 0.696,3.99025009 0.695652174,3.8410327 C0.696,2.10711958 2.10017391,0.696 3.82608696,0.695652174 C4.66191304,0.695652174 5.44776626,1.0231087 6.03872278,1.61684783 C6.63002713,2.21093478 6.95617391,3.00068487 6.95652174,3.8410327 L6.95652174,6.15353252 C7.17252174,5.94309774 7.40556522,5.75069565 7.65217391,5.57608696 L7.65217391,3.841712 C7.65182609,2.81597287 7.25401635,1.85089673 6.53192939,1.12567934 C5.80949461,0.399766296 4.84801635,0 3.82540765,0 Z M10.9565217,5.2173913 C8.17565217,5.2173913 5.91304348,7.48 5.91304348,10.2608696 C5.91304348,13.0417391 8.17565217,15.3043478 10.9565217,15.3043478 C13.7373913,15.3043478 16,13.0417391 16,10.2608696 C16,7.48 13.7373913,5.2173913 10.9565217,5.2173913 Z M13.5652174,7.30434783 C13.6541739,7.30434783 13.7431412,7.33825009 13.8111412,7.40625009 C13.9471412,7.54225009 13.9471412,7.76209774 13.8111412,7.89809774 L8.59374991,13.115489 C8.52592383,13.1833151 8.43686957,13.2173913 8.34782609,13.2173913 C8.25878261,13.2173913 8.16972835,13.1833151 8.10190226,13.115489 C7.96590226,12.979489 7.96590226,12.7596414 8.10190226,12.6236414 L13.3192936,7.40625009 C13.3872936,7.33825009 13.4762609,7.30434783 13.5652174,7.30434783 Z" id="Shape" fill="#000000" fill-rule="nonzero"></path>
                </g>
            </g>
        </g>
    </g>
</svg>