<?xml version="1.0" encoding="UTF-8" standalone="no"?>
<svg
   xmlns:dc="http://purl.org/dc/elements/1.1/"
   xmlns:cc="http://creativecommons.org/ns#"
   xmlns:rdf="http://www.w3.org/1999/02/22-rdf-syntax-ns#"
   xmlns:svg="http://www.w3.org/2000/svg"
   xmlns="http://www.w3.org/2000/svg"
   xmlns:sodipodi="http://sodipodi.sourceforge.net/DTD/sodipodi-0.dtd"
   xmlns:inkscape="http://www.inkscape.org/namespaces/inkscape"
   width="48"
   height="48"
   viewBox="0 0 48 48"
   version="1.1"
   id="svg14"
   sodipodi:docname="ic_recents.svg"
   inkscape:version="0.92.2 (unknown)"
   inkscape:export-filename="/home/weslley/programming/projetos/thefarma/react/thefarma/src/images/ic_recents.svg.png"
   inkscape:export-xdpi="96"
   inkscape:export-ydpi="96">
  <metadata
     id="metadata18">
    <rdf:RDF>
      <cc:Work
         rdf:about="">
        <dc:format>image/svg+xml</dc:format>
        <dc:type
           rdf:resource="http://purl.org/dc/dcmitype/StillImage" />
        <dc:title>recents</dc:title>
      </cc:Work>
    </rdf:RDF>
  </metadata>
  <sodipodi:namedview
     pagecolor="#ffffff"
     bordercolor="#666666"
     borderopacity="1"
     objecttolerance="10"
     gridtolerance="10"
     guidetolerance="10"
     inkscape:pageopacity="0"
     inkscape:pageshadow="2"
     inkscape:window-width="1366"
     inkscape:window-height="744"
     id="namedview16"
     showgrid="false"
     inkscape:zoom="12.541667"
     inkscape:cx="24"
     inkscape:cy="24"
     inkscape:window-x="0"
     inkscape:window-y="24"
     inkscape:window-maximized="1"
     inkscape:current-layer="svg14" />
  <!-- Generator: Sketch 48.1 (47250) - http://www.bohemiancoding.com/sketch -->
  <title
     id="title2">recents</title>
  <desc
     id="desc4">Created with Sketch.</desc>
  <defs
     id="defs6" />
  <g
     id="2.1-Search"
     transform="matrix(3,0,0,3,-72,-1644)"
     style="fill:none;fill-rule:evenodd;stroke:none;stroke-width:1">
    <g
       id="Stacked-Group"
       transform="translate(24,140)">
      <g
         id="Components/Row/Search-Result-Copy-6"
         transform="translate(0,384)">
        <g
           id="recents"
           transform="translate(0,24)">
          <rect
             id="Rectangle"
             x="0"
             y="0"
             width="16"
             height="16" />
          <path
             d="M 8.5,2 C 6.589844,2 4.878906,2.835938 3.6875,4.152344 L 2,2.464844 V 6 H 5.535156 L 4.394531,4.859375 C 5.402344,3.722656 6.859375,3 8.5,3 11.542969,3 14,5.457031 14,8.5 14,11.542969 11.542969,14 8.5,14 5.457031,14 3,11.542969 3,8.5 V 8 H 2 V 8.5 C 2,12.085938 4.914063,15 8.5,15 12.085938,15 15,12.085938 15,8.5 15,4.914063 12.085938,2 8.5,2 Z M 8,4 v 5 h 3 V 8 H 9 V 4 Z"
             id="Shape"
             inkscape:connector-curvature="0"
             style="fill:#000000;fill-opacity:0.79707312;fill-rule:nonzero" />
        </g>
      </g>
    </g>
  </g>
</svg>
