<?xml version="1.0" encoding="UTF-8"?>
<svg width="24px" height="24px" viewBox="0 0 24 24" version="1.1" xmlns="http://www.w3.org/2000/svg" xmlns:xlink="http://www.w3.org/1999/xlink">
    <!-- Generator: Sketch 52.2 (67145) - http://www.bohemiancoding.com/sketch -->
    <title>@0.5xIcons/code/new</title>
    <desc>Created with Sketch.</desc>
    <g id="Icons/code/new" stroke="none" stroke-width="1" fill="none" fill-rule="evenodd">
        <g id="ic/code/new">
            <rect id="Shape" x="0" y="0" width="24" height="24"></rect>
            <path d="M4.7158654,4.00008871 C4.31482813,4.00635061 3.99458108,4.33576281 4.00007303,4.73636634 L4.00007303,19.2633079 C3.99636433,19.5252548 4.13414229,19.7689046 4.36064903,19.9009591 C4.58715577,20.0330136 4.86729859,20.0330136 5.09380533,19.9009591 C5.32031207,19.7689046 5.45809003,19.5252548 5.45438133,19.2633079 L5.45438133,4.73636634 C5.45707284,4.54003449 5.38008311,4.3509763 5.24095453,4.2122694 C5.10182595,4.0735625 4.91240985,3.99702227 4.7158654,4.00008871 Z M7.624482,4.00008871 C7.22344474,4.00635061 6.90319768,4.33576281 6.90868963,4.73636634 L6.90868963,19.2633079 C6.90498093,19.5252548 7.04275889,19.7689046 7.26926563,19.9009591 C7.49577237,20.0330136 7.77591519,20.0330136 8.00242193,19.9009591 C8.22892867,19.7689046 8.36670663,19.5252548 8.36299793,19.2633079 L8.36299793,4.73636634 C8.36568944,4.54003449 8.28869971,4.3509763 8.14957113,4.2122694 C8.01044256,4.0735625 7.82102645,3.99702227 7.624482,4.00008871 Z M19.2589484,4.00008871 C18.8579111,4.00635061 18.5376641,4.33576281 18.543156,4.73636634 L18.543156,19.2633079 C18.5394473,19.5252548 18.6772253,19.7689046 18.903732,19.9009591 C19.1302388,20.0330136 19.4103816,20.0330136 19.6368883,19.9009591 C19.8633951,19.7689046 20.001173,19.5252548 19.9974643,19.2633079 L19.9974643,4.73636634 C20.0001559,4.54003449 19.9231661,4.3509763 19.7840375,4.2122694 C19.644909,4.0735625 19.4554929,3.99702227 19.2589484,4.00008871 Z M10.5444604,4.01001926 C10.1430713,4.01001926 9.81730623,4.33542275 9.81730623,4.73636634 L9.81730623,19.2633079 C9.81730623,19.6642515 10.1430713,19.989655 10.5444604,19.989655 L12.7259228,19.989655 C13.1273119,19.989655 13.453077,19.6642515 13.453077,19.2633079 L13.453077,4.73636634 C13.453077,4.33542275 13.1273119,4.01001926 12.7259228,4.01001926 L10.5444604,4.01001926 Z M15.6345394,4.01001926 C15.2331503,4.01001926 14.9073853,4.33542275 14.9073853,4.73636634 L14.9073853,19.2633079 C14.9073853,19.6642515 15.2331503,19.989655 15.6345394,19.989655 L16.3616936,19.989655 C16.7630827,19.989655 17.0888477,19.6642515 17.0888477,19.2633079 L17.0888477,4.73636634 C17.0888477,4.33542275 16.7630827,4.01001926 16.3616936,4.01001926 L15.6345394,4.01001926 Z" id="Shape" fill="#000000" fill-rule="nonzero"></path>
        </g>
    </g>
</svg>