<?xml version="1.0" encoding="UTF-8"?>
<svg width="24px" height="24px" viewBox="0 0 24 24" version="1.1" xmlns="http://www.w3.org/2000/svg" xmlns:xlink="http://www.w3.org/1999/xlink">
    <!-- Generator: Sketch 52.2 (67145) - http://www.bohemiancoding.com/sketch -->
    <title>mdpi/Icons/place/new</title>
    <desc>Created with Sketch.</desc>
    <g id="Icons/place/new" stroke="none" stroke-width="1" fill="none" fill-rule="evenodd">
        <g id="place-new" transform="translate(4.000000, 1.000000)" fill="#000000" fill-rule="nonzero">
            <path d="M8,0 C3.5937504,0 0,3.58255485 0,7.97507774 C0,9.20872337 0.5062496,10.5607479 1.2062496,11.9875387 C1.9062496,13.4205613 2.8187504,14.9158884 3.7375008,16.2803731 C5.5625008,19.015576 7.3812496,21.2398746 7.3812496,21.2398746 L8,22 L8.6187504,21.2398746 C8.6187504,21.2398746 10.4375008,19.015576 12.2687504,16.2803731 C13.1812496,14.9158884 14.0937504,13.4205613 14.7937504,11.9875387 C15.4937504,10.5607479 16,9.20872337 16,7.97507774 C16,3.58255485 12.4062496,0 8,0 Z M8,1.59501555 C11.5437504,1.59501555 14.4,4.44236712 14.4,7.97507774 C14.4,8.72274127 14.0062496,9.96261704 13.3562496,11.2897194 C12.7062496,12.6230535 11.8187504,14.0685364 10.9375008,15.4018689 C9.4687504,17.5950153 8.4687504,18.8037388 8,19.3894077 C7.5312496,18.8037388 6.5312496,17.5950153 5.0625008,15.4018689 C4.1812496,14.0685364 3.2937504,12.6230535 2.6437504,11.2897194 C1.9937504,9.96261704 1.6,8.72274127 1.6,7.97507774 C1.6,4.44236712 4.4562496,1.59501555 8,1.59501555 Z M8,6.38006219 C7.1187504,6.38006219 6.4,7.09657348 6.4,7.97507774 C6.4,8.853582 7.1187504,9.57009328 8,9.57009328 C8.8812496,9.57009328 9.6,8.853582 9.6,7.97507774 C9.6,7.09657348 8.8812496,6.38006219 8,6.38006219 Z" id="Shape"></path>
        </g>
    </g>
</svg>