<?xml version="1.0" encoding="UTF-8"?>
<svg width="24px" height="24px" viewBox="0 0 24 24" version="1.1" xmlns="http://www.w3.org/2000/svg" xmlns:xlink="http://www.w3.org/1999/xlink">
    <!-- Generator: Sketch 52.2 (67145) - http://www.bohemiancoding.com/sketch -->
    <title>@0.5xIcons/search/new</title>
    <desc>Created with Sketch.</desc>
    <g id="Icons/search/new" stroke="none" stroke-width="1" fill="none" fill-rule="evenodd">
        <g id="ic_search">
            <rect id="Shape" x="0" y="0" width="24" height="24"></rect>
            <path d="M17.3198574,15.9056439 L20.6568542,19.2426407 C21.0473785,19.633165 21.0473785,20.26633 20.6568542,20.6568542 C20.26633,21.0473785 19.633165,21.0473785 19.2426407,20.6568542 L15.9056439,17.3198574 C14.5509601,18.3729184 12.8487115,19 11,19 C6.581722,19 3,15.418278 3,11 C3,6.581722 6.581722,3 11,3 C15.418278,3 19,6.581722 19,11 C19,12.8487115 18.3729184,14.5509601 17.3198574,15.9056439 Z M11,17 C14.3137085,17 17,14.3137085 17,11 C17,7.6862915 14.3137085,5 11,5 C7.6862915,5 5,7.6862915 5,11 C5,14.3137085 7.6862915,17 11,17 Z" id="Shape" fill-opacity="0.797073143" fill="#000000"></path>
        </g>
    </g>
</svg>